M48
;Layer_Color=9474304
;FILE_FORMAT=4:4
METRIC,LZ
;TYPE=PLATED
T1F00S00C0.2000
T2F00S00C0.3100
T4F00S00C1.0160
T5F00S00C1.0200
T6F00S00C1.4750
T7F00S00C1.5000
T8F00S00C3.1000
T9F00S00C3.9000
%
T01
X00377317Y00303022
X00387477
Y00313182
X00377317
Y00323342
X00387477
Y00333502
X00377317
X00397637
Y00323342
Y00313182
Y00303022
T02
X000508Y000762
X000762
X001016
X00127
X001397Y001016
X001651
X001905
X002159
X002286Y000762
X00254
X002794
X003048
X003302
X003556
X00381
X003937Y001016
X003683
X003429
X003175
X002921
X003048Y00127
X003302
X003556
X00381
X003937Y001778
X003683
X003429
X003175
X002921
X002667
Y001524
X002413
X002159
X001905
X001651
X001397
X001143
X000889
X000635
X000762Y001778
X001016
X00127
X001524
X001778
X002032
X001905Y002032
X001651
X001397
X001143
X000889
X000635
X000762Y002286
X001016
X00127
X001524
X001778
X002032
X002159Y00254
X001905
X002032Y002794
X002286
X00254
X002159Y003048
X001905
X001651
X001397
X001143
X00127Y003302
X001524
X001778
X001905Y003556
X001651
X001397
X001143
X000889
X000635
X000762Y00381
X001016
Y003302
Y002794
X00127
X001524
X001778
X001143Y00254
X000889
X000635
X000508Y002286
Y001778
Y00127
X000762
X001016
X00127
X001524
X001778
X002032
Y000762
X001778
X001143Y001016
X000889
X000635
X002794Y00127
Y002032
X003048
X003302
X003556
X00381
X003937Y002286
X003683
X003429
X003175
X002921
X002413Y001778
X003302Y003302
X003937Y003556
X000508Y00381
X005588
X005715Y003556
X005588Y003302
X005715Y003048
X005588Y002794
X005334
X006223
X006477
X006731
X006858Y003048
X006604
X00635
X006096
X006223Y003302
X006477
X006731
X006858Y003556
X00703326Y00352044
X006604Y003556
X00635
X006096
X006223Y00381
X006477
X006731
X0059309Y00385826
X006096Y00254
X00635
X006604
X006858
X007239
X007493
X007747
X00762Y002286
X007366
X007112
X007239Y002032
X007493
X00762Y001778
X007874
X007747Y001524
X007493
X007239
X007366Y001778
X007112
X006731
X006477
X006223
X00635Y002032
X006604
X006858
Y00127
X007112
X007366
X007493Y001016
X007239
X006985
X006731
X006477
X006223
X005969
X005715
X005842Y00127
X006096
X00635
X006604
Y000762
X006858
X007112
X007366
X00635
X006096
X005842
X005588
X00508
X004826
X004953Y001016
X00508Y00127
X004826
X004953Y001524
X00530352Y00164592
X005588Y00127
X004318
X004064
X004191Y001016
X004318Y000762
X004064
X00455168Y00164592
X006096Y002032
X007874Y003556
X007747Y00381
X008763
X009017
X009144Y003556
X009398
X009271Y003302
X009017
X008763
X008509
X008636Y003048
X00889
X009144
X009271Y002794
X009017
X008763
X008509
X008636Y00254
X008763Y002286
X009017
X009271
X009525
X009779
X009652Y00254
X009398
X009144
Y002032
X009398
X009652
X009779Y001778
X009525
X009271
X009017
X008763
X008509
X008636Y002032
X00889
Y001524
X009144
X009398
X009652
X009525Y00127
X009271
X009017
X008763
X008509
X008255
X008382Y001524
X008636
Y001016
X00889
X009144
X009398
X008382
X008001Y001524
X008128Y001778
X008255Y002032
X008509Y002286
X008255Y00254
X008001
X00889Y003556
Y004064
X0086614Y00408126
X008763Y004318
X009017
X009271
X009398Y004064
X009144
X0096393Y00401066
X0098044Y00402538
X00980694Y00461772
X00923544Y00474726
X00866394
X008509Y00508
X008636Y005334
X00889
X009144
X00900684Y00557022
X009271Y005588
X009525
X009779
X009906Y005842
X009652
X009398
X009144
X00889
X008636
X00838962Y0058674
X008128Y005842
X008255Y006096
X008509
X008763
X009017
X009271
X009525
X009779
X010033
X009906Y00635
X009652
X009398
X009144
X00889
X009017Y006604
X009271
X009525
X009779
X010033
X009906Y006858
X009652
X009398
X009144Y007366
X009271Y00762
X009525
X009779
X009906Y007874
X009652
X009398
X009144
X008636Y007366
X008382
X008128
X009906
X008509Y005588
X008255
X008001
X008128Y005334
X008382
X008255Y004826
X008001
X007747
X007493
Y00508
X007239
X006985
X007112Y005334
X007366
X00762
X007874
X007747Y005588
X007874Y005842
X007112
X006604
X00635
X006477Y005588
X006604Y005334
X006858
X00635
X00607568Y00522224
X005969Y005588
X004953
X004699
X00476504Y00546862
X004826Y005334
X004572
X00476758Y00507238
X004953Y00508
Y004572
X005207
Y004064
X005461
X0057023Y00407162
X00606806Y0043561
X006223Y004318
X006477
X006731
X006858Y004064
X00702564Y00413258
X006604Y004064
X007874
X007747Y004318
X007874Y004572
Y007366
X00762
X007366
X007112
X006858
X006604
X00635
X006096
X005842
X005588
X005334
X00508
X004826
X004572
X004318
X004064
Y007874
X004572
X005842
X00635
X006858
X005461Y007112
X00534804Y00494404
X004826Y004318
X004953Y004064
X004699
X00431546Y0045847
X003302Y004318
X003048
X00303276Y0046228
X002921Y004572
X00278384Y00415544
X00254Y004318
X002159Y004572
X00195575Y00447548
Y00472985
Y00498421
Y00523858
Y00549295
Y00574731
Y00600168
Y00625605
X002286Y00635
X00254
X003175Y006096
X00325374Y00578866
X00338836
Y00534162
X00322834
X00281686Y0056388
X002794Y007366
X003048
X003302
X003556
X00381
X003556Y007874
X003175Y007112
X00254Y007366
X002286
X002032
X001778
X001524
X00127
X001143Y00762
X00127Y007874
X001524
X001778
X000508
X000635Y00762
X000508Y007366
X000635Y007112
X000762Y006858
X000508
X000635Y006604
X000889
X001524Y004318
X001397Y004064
X002159
X001905Y008128
X001651
X001397
X001143
X000889
X000635
X001016Y008382
X00127
X001524
X001778
X001905Y008636
X002159
X002413
X002667
X002921
X003175
X003429
X003683
X003937
X00381Y00889
X003556
X003302
X003048
X002794
X00254
X002286
X002032
X001778
X001524
X00127
X001016
X001143Y008636
X001397
X001651
X003429Y008128
X003937
X00381Y008382
X004064
X004318
X004445Y008636
X004699
X004953
X005207
X005461
X005715
X005969
X006223
X006477
X006731
X006985
X007239
X007493
X007747
X007874Y00889
X00762
X007366
X007112
X006858
X006604
X00635
X006096
X005842
X005588
X005334
X00508
X004826
X004572
X004318
X004064
X004191Y008636
Y008128
X004699
X005715
X006223
X006477
X006604Y008382
X00635
X006096
X006985Y008128
X008001Y008636
X008255
X008509
X008763
X009017
X009271
X009398Y00889
X009144
X00889
X008636
X008382
X008128
X008636Y008382
X00889
X009144
X009398
X009525Y008128
X009779
X010033
X009271
X009017
X008763
T04
X00098298Y00719836
Y00745236
Y00770636
Y00796036
X0021463Y00836168
X0024003
X0026543
X0029083
X0031623
X0034163
X00470536Y00836516
X00495936
X00521336
X00546736
X00572136
X00699826
X00725226
X00750626
X00776026
X00801426
X00826826
T05
X0006223Y00408686
X0008763
Y00434086
X0006223Y00434086
Y00459486
X0008763
Y00484886
X0006223
Y00510286
X0008763
Y00535686
Y00561086
Y00586486
Y00611886
Y00637286
X0006223
Y00611886
Y00586486
Y00561086
Y00535686
T06
X0030339Y0016129
X0032879
X0035419
X0037959
Y0023749
X0035419
X0032879
X0030339
X0045339Y0031129
X0047879
X0050419
X0052959
Y0038749
X0050419
X0047879
X0045339
X0060339Y0023749
X0062879
X0065419
X0067959
Y0016129
X0065419
X0062879
X0060339
T07
X00167132Y00381762
X00192132
Y00417576
X00167132Y00417576
X0026797Y00602234
X0029297
T08
X00071124Y0030657
X00971046
X00071149Y00862031
X0097115
T09
X0024638Y00107408
Y00216408
X00796
Y00107408
M30
