G04*
G04 #@! TF.GenerationSoftware,Altium Limited,Altium Designer,23.4.1 (23)*
G04*
G04 Layer_Physical_Order=2*
G04 Layer_Color=16711680*
%FSLAX44Y44*%
%MOMM*%
G71*
G04*
G04 #@! TF.SameCoordinates,77ABDD02-67A3-4E24-B7DB-6919BA7AE113*
G04*
G04*
G04 #@! TF.FilePolarity,Positive*
G04*
G01*
G75*
%ADD18C,0.2540*%
%ADD40R,2.9500X1.6800*%
%ADD41R,2.9500X7.6200*%
%ADD104C,0.5080*%
%ADD109C,1.8000*%
%ADD110R,4.9160X4.9160*%
%ADD111C,4.9160*%
%ADD112O,2.6000X1.3000*%
%ADD113C,1.5500*%
%ADD114R,1.5500X1.5500*%
%ADD115O,1.8000X2.5000*%
%ADD116R,1.8000X2.5000*%
%ADD117R,1.5500X1.5500*%
%ADD119C,0.6200*%
%ADD120C,0.5000*%
%ADD121C,6.2000*%
%ADD122C,1.7800*%
G36*
X977583Y908497D02*
X983660Y907288D01*
X989528Y905296D01*
X995085Y902556D01*
X1000237Y899113D01*
X1004896Y895028D01*
X1008981Y890369D01*
X1012424Y885217D01*
X1015164Y879660D01*
X1017156Y873792D01*
X1018365Y867715D01*
X1018764Y861628D01*
X1018745Y861532D01*
X1018745Y101334D01*
X1018745Y100076D01*
X1018745Y100063D01*
X1018689Y98817D01*
X1018365Y93880D01*
X1017156Y87803D01*
X1015164Y81935D01*
X1012424Y76378D01*
X1008981Y71226D01*
X1004896Y66567D01*
X1000237Y62482D01*
X995085Y59039D01*
X989528Y56298D01*
X983660Y54307D01*
X977583Y53098D01*
X971496Y52699D01*
X971400Y52718D01*
X71399D01*
X71303Y52699D01*
X65216Y53098D01*
X59139Y54307D01*
X53271Y56298D01*
X47714Y59039D01*
X42562Y62482D01*
X37903Y66567D01*
X33818Y71226D01*
X30375Y76378D01*
X27634Y81935D01*
X25643Y87803D01*
X24434Y93880D01*
X24110Y98817D01*
X24054Y100063D01*
X24054D01*
X24054Y100064D01*
X24054Y231852D01*
X216612D01*
Y189738D01*
X216809Y188747D01*
X217371Y187907D01*
X242263Y163015D01*
X243103Y162453D01*
X244094Y162256D01*
X271723D01*
X292301Y141679D01*
X293141Y141117D01*
X294132Y140920D01*
X403098D01*
X404089Y141117D01*
X404929Y141679D01*
X415851Y152601D01*
X416413Y153441D01*
X416610Y154432D01*
Y246888D01*
X416413Y247879D01*
X415851Y248719D01*
X405183Y259387D01*
X404343Y259949D01*
X403352Y260146D01*
X229961D01*
X228970Y259949D01*
X228130Y259387D01*
X217875Y249132D01*
X217653Y249281D01*
X216662Y249478D01*
X166558D01*
X165931Y250748D01*
X166776Y251849D01*
X167687Y254048D01*
X167998Y256408D01*
X167687Y258768D01*
X166776Y260967D01*
X165327Y262855D01*
X163439Y264304D01*
X161240Y265215D01*
X158880Y265526D01*
X145880D01*
X143520Y265215D01*
X141321Y264304D01*
X139433Y262855D01*
X137984Y260967D01*
X137073Y258768D01*
X136762Y256408D01*
X137073Y254048D01*
X137984Y251849D01*
X138829Y250748D01*
X138202Y249478D01*
X24054D01*
X24054Y861532D01*
X24035Y861628D01*
X24434Y867715D01*
X25643Y873792D01*
X27634Y879660D01*
X30375Y885217D01*
X33818Y890369D01*
X37903Y895028D01*
X42562Y899113D01*
X47714Y902556D01*
X53271Y905296D01*
X59139Y907288D01*
X65216Y908497D01*
X71303Y908896D01*
X71399Y908877D01*
X971400D01*
X971496Y908896D01*
X977583Y908497D01*
D02*
G37*
G36*
X414020Y246888D02*
Y154432D01*
X403098Y143510D01*
X294132D01*
X272796Y164846D01*
X244094D01*
X219202Y189738D01*
Y246797D01*
X229961Y257556D01*
X403352D01*
X414020Y246888D01*
D02*
G37*
%LPC*%
G36*
X973789Y895571D02*
X968510D01*
X963296Y894745D01*
X958275Y893114D01*
X953571Y890717D01*
X949300Y887614D01*
X945567Y883881D01*
X942464Y879610D01*
X940067Y874906D01*
X938436Y869885D01*
X937610Y864671D01*
Y859392D01*
X938436Y854177D01*
X940067Y849156D01*
X942464Y844453D01*
X945567Y840182D01*
X949300Y836449D01*
X953571Y833345D01*
X958275Y830949D01*
X963296Y829317D01*
X968510Y828491D01*
X973789D01*
X979004Y829317D01*
X984025Y830949D01*
X988728Y833345D01*
X992999Y836449D01*
X996732Y840182D01*
X999836Y844453D01*
X1002232Y849156D01*
X1003864Y854177D01*
X1004690Y859392D01*
Y864671D01*
X1003864Y869885D01*
X1002232Y874906D01*
X999836Y879610D01*
X996732Y883881D01*
X992999Y887614D01*
X988728Y890717D01*
X984025Y893114D01*
X979004Y894745D01*
X973789Y895571D01*
D02*
G37*
G36*
X73789D02*
X68510D01*
X63295Y894745D01*
X58274Y893114D01*
X53571Y890717D01*
X49300Y887614D01*
X45567Y883881D01*
X42463Y879610D01*
X40067Y874906D01*
X38435Y869885D01*
X37609Y864671D01*
Y859392D01*
X38435Y854177D01*
X40067Y849156D01*
X42463Y844453D01*
X45567Y840182D01*
X49300Y836449D01*
X53571Y833345D01*
X58274Y830949D01*
X63295Y829317D01*
X68510Y828491D01*
X73789D01*
X79003Y829317D01*
X84024Y830949D01*
X88728Y833345D01*
X92999Y836449D01*
X96732Y840182D01*
X99835Y844453D01*
X102232Y849156D01*
X103863Y854177D01*
X104689Y859392D01*
Y864671D01*
X103863Y869885D01*
X102232Y874906D01*
X99835Y879610D01*
X96732Y883881D01*
X92999Y887614D01*
X88728Y890717D01*
X84024Y893114D01*
X79003Y894745D01*
X73789Y895571D01*
D02*
G37*
G36*
X837116Y846806D02*
X816536D01*
Y826226D01*
X837116D01*
Y846806D01*
D02*
G37*
G36*
X802781D02*
X800071D01*
X797454Y846105D01*
X795108Y844750D01*
X793192Y842834D01*
X791837Y840488D01*
X791136Y837871D01*
Y835161D01*
X791837Y832544D01*
X793192Y830198D01*
X795108Y828282D01*
X797454Y826927D01*
X800071Y826226D01*
X802781D01*
X805398Y826927D01*
X807744Y828282D01*
X809660Y830198D01*
X811015Y832544D01*
X811716Y835161D01*
Y837871D01*
X811015Y840488D01*
X809660Y842834D01*
X807744Y844750D01*
X805398Y846105D01*
X802781Y846806D01*
D02*
G37*
G36*
X777381D02*
X774671D01*
X772054Y846105D01*
X769708Y844750D01*
X767792Y842834D01*
X766437Y840488D01*
X765736Y837871D01*
Y835161D01*
X766437Y832544D01*
X767792Y830198D01*
X769708Y828282D01*
X772054Y826927D01*
X774671Y826226D01*
X777381D01*
X779998Y826927D01*
X782344Y828282D01*
X784260Y830198D01*
X785615Y832544D01*
X786316Y835161D01*
Y837871D01*
X785615Y840488D01*
X784260Y842834D01*
X782344Y844750D01*
X779998Y846105D01*
X777381Y846806D01*
D02*
G37*
G36*
X751981D02*
X749271D01*
X746654Y846105D01*
X744308Y844750D01*
X742392Y842834D01*
X741037Y840488D01*
X740336Y837871D01*
Y835161D01*
X741037Y832544D01*
X742392Y830198D01*
X744308Y828282D01*
X746654Y826927D01*
X749271Y826226D01*
X751981D01*
X754598Y826927D01*
X756944Y828282D01*
X758860Y830198D01*
X760215Y832544D01*
X760916Y835161D01*
Y837871D01*
X760215Y840488D01*
X758860Y842834D01*
X756944Y844750D01*
X754598Y846105D01*
X751981Y846806D01*
D02*
G37*
G36*
X726581D02*
X723871D01*
X721254Y846105D01*
X718908Y844750D01*
X716992Y842834D01*
X715637Y840488D01*
X714936Y837871D01*
Y835161D01*
X715637Y832544D01*
X716992Y830198D01*
X718908Y828282D01*
X721254Y826927D01*
X723871Y826226D01*
X726581D01*
X729198Y826927D01*
X731544Y828282D01*
X733460Y830198D01*
X734815Y832544D01*
X735516Y835161D01*
Y837871D01*
X734815Y840488D01*
X733460Y842834D01*
X731544Y844750D01*
X729198Y846105D01*
X726581Y846806D01*
D02*
G37*
G36*
X701181D02*
X698471D01*
X695854Y846105D01*
X693508Y844750D01*
X691592Y842834D01*
X690237Y840488D01*
X689536Y837871D01*
Y835161D01*
X690237Y832544D01*
X691592Y830198D01*
X693508Y828282D01*
X695854Y826927D01*
X698471Y826226D01*
X701181D01*
X703798Y826927D01*
X706144Y828282D01*
X708060Y830198D01*
X709415Y832544D01*
X710116Y835161D01*
Y837871D01*
X709415Y840488D01*
X708060Y842834D01*
X706144Y844750D01*
X703798Y846105D01*
X701181Y846806D01*
D02*
G37*
G36*
X582426D02*
X561846D01*
Y826226D01*
X582426D01*
Y846806D01*
D02*
G37*
G36*
X548091D02*
X545381D01*
X542764Y846105D01*
X540418Y844750D01*
X538502Y842834D01*
X537147Y840488D01*
X536446Y837871D01*
Y835161D01*
X537147Y832544D01*
X538502Y830198D01*
X540418Y828282D01*
X542764Y826927D01*
X545381Y826226D01*
X548091D01*
X550708Y826927D01*
X553054Y828282D01*
X554970Y830198D01*
X556325Y832544D01*
X557026Y835161D01*
Y837871D01*
X556325Y840488D01*
X554970Y842834D01*
X553054Y844750D01*
X550708Y846105D01*
X548091Y846806D01*
D02*
G37*
G36*
X522691D02*
X519981D01*
X517364Y846105D01*
X515018Y844750D01*
X513102Y842834D01*
X511747Y840488D01*
X511046Y837871D01*
Y835161D01*
X511747Y832544D01*
X513102Y830198D01*
X515018Y828282D01*
X517364Y826927D01*
X519981Y826226D01*
X522691D01*
X525308Y826927D01*
X527654Y828282D01*
X529570Y830198D01*
X530925Y832544D01*
X531626Y835161D01*
Y837871D01*
X530925Y840488D01*
X529570Y842834D01*
X527654Y844750D01*
X525308Y846105D01*
X522691Y846806D01*
D02*
G37*
G36*
X497291D02*
X494581D01*
X491964Y846105D01*
X489618Y844750D01*
X487702Y842834D01*
X486347Y840488D01*
X485646Y837871D01*
Y835161D01*
X486347Y832544D01*
X487702Y830198D01*
X489618Y828282D01*
X491964Y826927D01*
X494581Y826226D01*
X497291D01*
X499908Y826927D01*
X502254Y828282D01*
X504170Y830198D01*
X505525Y832544D01*
X506226Y835161D01*
Y837871D01*
X505525Y840488D01*
X504170Y842834D01*
X502254Y844750D01*
X499908Y846105D01*
X497291Y846806D01*
D02*
G37*
G36*
X471891D02*
X469181D01*
X466564Y846105D01*
X464218Y844750D01*
X462302Y842834D01*
X460947Y840488D01*
X460246Y837871D01*
Y835161D01*
X460947Y832544D01*
X462302Y830198D01*
X464218Y828282D01*
X466564Y826927D01*
X469181Y826226D01*
X471891D01*
X474508Y826927D01*
X476854Y828282D01*
X478770Y830198D01*
X480125Y832544D01*
X480826Y835161D01*
Y837871D01*
X480125Y840488D01*
X478770Y842834D01*
X476854Y844750D01*
X474508Y846105D01*
X471891Y846806D01*
D02*
G37*
G36*
X351920Y846458D02*
X331340D01*
Y825878D01*
X351920D01*
Y846458D01*
D02*
G37*
G36*
X317585D02*
X314875D01*
X312258Y845757D01*
X309912Y844402D01*
X307996Y842486D01*
X306641Y840140D01*
X305940Y837523D01*
Y834813D01*
X306641Y832196D01*
X307996Y829850D01*
X309912Y827934D01*
X312258Y826579D01*
X314875Y825878D01*
X317585D01*
X320202Y826579D01*
X322548Y827934D01*
X324464Y829850D01*
X325819Y832196D01*
X326520Y834813D01*
Y837523D01*
X325819Y840140D01*
X324464Y842486D01*
X322548Y844402D01*
X320202Y845757D01*
X317585Y846458D01*
D02*
G37*
G36*
X292185D02*
X289475D01*
X286858Y845757D01*
X284512Y844402D01*
X282596Y842486D01*
X281241Y840140D01*
X280540Y837523D01*
Y834813D01*
X281241Y832196D01*
X282596Y829850D01*
X284512Y827934D01*
X286858Y826579D01*
X289475Y825878D01*
X292185D01*
X294802Y826579D01*
X297148Y827934D01*
X299064Y829850D01*
X300419Y832196D01*
X301120Y834813D01*
Y837523D01*
X300419Y840140D01*
X299064Y842486D01*
X297148Y844402D01*
X294802Y845757D01*
X292185Y846458D01*
D02*
G37*
G36*
X266785D02*
X264075D01*
X261458Y845757D01*
X259112Y844402D01*
X257196Y842486D01*
X255841Y840140D01*
X255140Y837523D01*
Y834813D01*
X255841Y832196D01*
X257196Y829850D01*
X259112Y827934D01*
X261458Y826579D01*
X264075Y825878D01*
X266785D01*
X269402Y826579D01*
X271748Y827934D01*
X273664Y829850D01*
X275019Y832196D01*
X275720Y834813D01*
Y837523D01*
X275019Y840140D01*
X273664Y842486D01*
X271748Y844402D01*
X269402Y845757D01*
X266785Y846458D01*
D02*
G37*
G36*
X241385D02*
X238675D01*
X236058Y845757D01*
X233712Y844402D01*
X231796Y842486D01*
X230441Y840140D01*
X229740Y837523D01*
Y834813D01*
X230441Y832196D01*
X231796Y829850D01*
X233712Y827934D01*
X236058Y826579D01*
X238675Y825878D01*
X241385D01*
X244002Y826579D01*
X246348Y827934D01*
X248264Y829850D01*
X249619Y832196D01*
X250320Y834813D01*
Y837523D01*
X249619Y840140D01*
X248264Y842486D01*
X246348Y844402D01*
X244002Y845757D01*
X241385Y846458D01*
D02*
G37*
G36*
X108588Y806326D02*
X88008D01*
Y785746D01*
X108588D01*
Y806326D01*
D02*
G37*
G36*
X99653Y755526D02*
X96943D01*
X94326Y754825D01*
X91980Y753470D01*
X90064Y751554D01*
X88709Y749208D01*
X88008Y746591D01*
Y743881D01*
X88709Y741264D01*
X90064Y738918D01*
X91980Y737002D01*
X94326Y735647D01*
X96943Y734946D01*
X99653D01*
X102270Y735647D01*
X104616Y737002D01*
X106532Y738918D01*
X107887Y741264D01*
X108588Y743881D01*
Y746591D01*
X107887Y749208D01*
X106532Y751554D01*
X104616Y753470D01*
X102270Y754825D01*
X99653Y755526D01*
D02*
G37*
G36*
X89136Y648726D02*
X86124D01*
X83214Y647946D01*
X80606Y646440D01*
X78476Y644310D01*
X76970Y641702D01*
X76190Y638792D01*
Y635780D01*
X76970Y632870D01*
X78476Y630262D01*
X80606Y628132D01*
X83214Y626626D01*
X86124Y625846D01*
X89136D01*
X92046Y626626D01*
X94654Y628132D01*
X96784Y630262D01*
X98290Y632870D01*
X99070Y635780D01*
Y638792D01*
X98290Y641702D01*
X96784Y644310D01*
X94654Y646440D01*
X92046Y647946D01*
X89136Y648726D01*
D02*
G37*
G36*
Y623326D02*
X86124D01*
X83214Y622546D01*
X80606Y621040D01*
X78476Y618910D01*
X76970Y616302D01*
X76190Y613392D01*
Y610380D01*
X76970Y607470D01*
X78476Y604862D01*
X80606Y602732D01*
X83214Y601226D01*
X86124Y600446D01*
X89136D01*
X92046Y601226D01*
X94654Y602732D01*
X96784Y604862D01*
X98290Y607470D01*
X99070Y610380D01*
Y613392D01*
X98290Y616302D01*
X96784Y618910D01*
X94654Y621040D01*
X92046Y622546D01*
X89136Y623326D01*
D02*
G37*
G36*
X279510Y617274D02*
X256430D01*
Y587194D01*
X279510D01*
Y617274D01*
D02*
G37*
G36*
X292970Y617374D02*
X289958Y616977D01*
X287150Y615814D01*
X284740Y613964D01*
X282890Y611554D01*
X281727Y608747D01*
X281331Y605734D01*
Y598734D01*
X281727Y595721D01*
X282890Y592914D01*
X284740Y590504D01*
X287150Y588654D01*
X289958Y587491D01*
X292970Y587094D01*
X295982Y587491D01*
X298790Y588654D01*
X301200Y590504D01*
X303050Y592914D01*
X304213Y595721D01*
X304610Y598734D01*
Y605734D01*
X304213Y608747D01*
X303050Y611554D01*
X301200Y613964D01*
X298790Y615814D01*
X295982Y616977D01*
X292970Y617374D01*
D02*
G37*
G36*
X89136Y597926D02*
X86124D01*
X83214Y597146D01*
X80606Y595640D01*
X78476Y593510D01*
X76970Y590902D01*
X76190Y587992D01*
Y584980D01*
X76970Y582070D01*
X78476Y579462D01*
X80606Y577332D01*
X83214Y575826D01*
X86124Y575046D01*
X89136D01*
X92046Y575826D01*
X94654Y577332D01*
X96784Y579462D01*
X98290Y582070D01*
X99070Y584980D01*
Y587992D01*
X98290Y590902D01*
X96784Y593510D01*
X94654Y595640D01*
X92046Y597146D01*
X89136Y597926D01*
D02*
G37*
G36*
Y572526D02*
X86124D01*
X83214Y571746D01*
X80606Y570240D01*
X78476Y568110D01*
X76970Y565502D01*
X76190Y562592D01*
Y559580D01*
X76970Y556670D01*
X78476Y554062D01*
X80606Y551932D01*
X83214Y550426D01*
X86124Y549646D01*
X89136D01*
X92046Y550426D01*
X94654Y551932D01*
X96784Y554062D01*
X98290Y556670D01*
X99070Y559580D01*
Y562592D01*
X98290Y565502D01*
X96784Y568110D01*
X94654Y570240D01*
X92046Y571746D01*
X89136Y572526D01*
D02*
G37*
G36*
Y547126D02*
X86124D01*
X83214Y546346D01*
X80606Y544840D01*
X78476Y542710D01*
X76970Y540102D01*
X76190Y537192D01*
Y534180D01*
X76970Y531270D01*
X78476Y528662D01*
X80606Y526532D01*
X83214Y525026D01*
X86124Y524246D01*
X89136D01*
X92046Y525026D01*
X94654Y526532D01*
X96784Y528662D01*
X98290Y531270D01*
X99070Y534180D01*
Y537192D01*
X98290Y540102D01*
X96784Y542710D01*
X94654Y544840D01*
X92046Y546346D01*
X89136Y547126D01*
D02*
G37*
G36*
X597154Y536523D02*
X495808D01*
X494321Y536227D01*
X493061Y535385D01*
X474571Y516895D01*
X473729Y515635D01*
X473433Y514148D01*
Y511889D01*
X471977Y510433D01*
X471118Y508360D01*
Y506116D01*
X471977Y504043D01*
X473563Y502457D01*
X475636Y501598D01*
X477880D01*
X479953Y502457D01*
X481539Y504043D01*
X482398Y506116D01*
Y508360D01*
X481539Y510433D01*
X481203Y510770D01*
Y512539D01*
X497417Y528753D01*
X595545D01*
X601928Y522370D01*
Y521102D01*
X602787Y519029D01*
X604373Y517443D01*
X606446Y516584D01*
X608690D01*
X610763Y517443D01*
X612349Y519029D01*
X613208Y521102D01*
Y523346D01*
X612349Y525419D01*
X610763Y527005D01*
X608690Y527864D01*
X607422D01*
X599901Y535385D01*
X598641Y536227D01*
X597154Y536523D01*
D02*
G37*
G36*
X89136Y521726D02*
X86124D01*
X83214Y520946D01*
X80606Y519440D01*
X78476Y517310D01*
X76970Y514702D01*
X76190Y511792D01*
Y508780D01*
X76970Y505870D01*
X78476Y503262D01*
X80606Y501132D01*
X83214Y499626D01*
X86124Y498846D01*
X89136D01*
X92046Y499626D01*
X94654Y501132D01*
X96784Y503262D01*
X98290Y505870D01*
X99070Y508780D01*
Y511792D01*
X98290Y514702D01*
X96784Y517310D01*
X94654Y519440D01*
X92046Y520946D01*
X89136Y521726D01*
D02*
G37*
G36*
X901806Y562662D02*
X899562D01*
X897489Y561803D01*
X895903Y560217D01*
X895044Y558144D01*
Y555900D01*
X895505Y554789D01*
Y479906D01*
X868627D01*
X867516Y480366D01*
X865272D01*
X863199Y479507D01*
X861613Y477921D01*
X860754Y475848D01*
Y473604D01*
X860960Y473106D01*
Y410359D01*
X860500Y409248D01*
Y407004D01*
X861359Y404931D01*
X862945Y403345D01*
X865018Y402486D01*
X867262D01*
X869335Y403345D01*
X870921Y404931D01*
X871780Y407004D01*
Y407417D01*
X873050Y408107D01*
X873202Y408009D01*
Y397821D01*
X872179Y396798D01*
X861060Y396798D01*
X860069Y396601D01*
X859229Y396039D01*
X857681Y394491D01*
X856411Y395017D01*
Y490855D01*
X856214Y491846D01*
X855652Y492686D01*
X846000Y502338D01*
X845160Y502900D01*
X844169Y503097D01*
X705739D01*
X704748Y502900D01*
X703908Y502338D01*
X703346Y501498D01*
X703149Y500507D01*
X703346Y499516D01*
X703908Y498676D01*
X713885Y488699D01*
X713399Y487525D01*
X620776D01*
X618794Y487131D01*
X617113Y486008D01*
X594254Y463148D01*
X593131Y461468D01*
X592737Y459486D01*
Y392797D01*
X591007Y391068D01*
X589895Y390607D01*
X588309Y389021D01*
X587450Y386948D01*
Y384704D01*
X588309Y382631D01*
X589895Y381045D01*
X591968Y380186D01*
X594212D01*
X596285Y381045D01*
X597871Y382631D01*
X598332Y383743D01*
X601578Y386990D01*
X602701Y388670D01*
X603096Y390652D01*
X603096Y390652D01*
Y429685D01*
X604366Y430516D01*
X605684Y429970D01*
X607838D01*
X608046Y429919D01*
X609042Y429057D01*
Y369881D01*
X582369Y343207D01*
X581807Y342367D01*
X581610Y341376D01*
Y155702D01*
X581807Y154711D01*
X582369Y153871D01*
X592275Y143965D01*
X593115Y143403D01*
X594106Y143206D01*
X683514D01*
X684505Y143403D01*
X685345Y143965D01*
X696775Y155395D01*
X697337Y156235D01*
X697534Y157226D01*
X697534Y335788D01*
X697337Y336779D01*
X696775Y337619D01*
X693978Y340417D01*
Y364433D01*
X695763Y366218D01*
X709676D01*
X710667Y366415D01*
X711507Y366977D01*
X714047Y369517D01*
X714609Y370357D01*
X714806Y371348D01*
Y404368D01*
X714609Y405359D01*
X714047Y406199D01*
X711507Y408739D01*
X710667Y409301D01*
X709676Y409498D01*
X708439D01*
X707637Y410768D01*
X707806Y411175D01*
X720849Y424218D01*
X722022Y423732D01*
Y373239D01*
X706007Y357224D01*
X705559D01*
X704448Y357684D01*
X702204D01*
X700131Y356825D01*
X698545Y355239D01*
X697686Y353166D01*
Y350922D01*
X698545Y348849D01*
X700131Y347263D01*
X702204Y346404D01*
X704448D01*
X705559Y346865D01*
X708152D01*
X710134Y347259D01*
X711814Y348382D01*
X728646Y365213D01*
X729819Y364727D01*
Y351155D01*
X730016Y350164D01*
X730578Y349324D01*
X731418Y348762D01*
X732409Y348565D01*
X849063D01*
X849528Y348254D01*
X849950Y348171D01*
X850416Y346840D01*
X839163Y335587D01*
X838601Y334747D01*
X838404Y333756D01*
Y170491D01*
X805631Y137718D01*
X774700D01*
X773709Y137521D01*
X772869Y136959D01*
X770437Y134528D01*
X768880D01*
Y132971D01*
X768551Y132641D01*
X767989Y131801D01*
X767792Y130810D01*
X767792Y82550D01*
X767989Y81559D01*
X768551Y80719D01*
X768880Y80390D01*
Y80288D01*
X768981D01*
X771599Y77671D01*
X772439Y77109D01*
X773430Y76912D01*
X834390Y76912D01*
X879504D01*
X879757Y75642D01*
X878941Y75304D01*
X877053Y73855D01*
X875604Y71967D01*
X874693Y69768D01*
X874382Y67408D01*
X874693Y65048D01*
X875604Y62849D01*
X877053Y60961D01*
X878941Y59512D01*
X881140Y58601D01*
X883500Y58290D01*
X896500D01*
X898860Y58601D01*
X901059Y59512D01*
X902947Y60961D01*
X904396Y62849D01*
X905307Y65048D01*
X905618Y67408D01*
X905307Y69768D01*
X904396Y71967D01*
X902947Y73855D01*
X901059Y75304D01*
X900243Y75642D01*
X900496Y76912D01*
X926592D01*
X927583Y77109D01*
X928423Y77671D01*
X992431Y141679D01*
X992993Y142519D01*
X993190Y143510D01*
Y235712D01*
X993105Y236139D01*
X993043Y236571D01*
X993007Y236632D01*
X992993Y236703D01*
X992751Y237065D01*
X992529Y237440D01*
X992471Y237484D01*
X992431Y237543D01*
X953566Y276408D01*
X954322Y277448D01*
X958171Y275487D01*
X963192Y273856D01*
X968406Y273030D01*
X973686D01*
X978900Y273856D01*
X983921Y275487D01*
X988625Y277884D01*
X992896Y280987D01*
X996629Y284720D01*
X999732Y288991D01*
X1002129Y293695D01*
X1003760Y298716D01*
X1004586Y303930D01*
Y309210D01*
X1003760Y314424D01*
X1002129Y319445D01*
X999732Y324149D01*
X996629Y328420D01*
X992896Y332153D01*
X988625Y335256D01*
X983921Y337653D01*
X978900Y339284D01*
X973686Y340110D01*
X968406D01*
X963192Y339284D01*
X958171Y337653D01*
X953467Y335256D01*
X949196Y332153D01*
X945463Y328420D01*
X942360Y324149D01*
X939963Y319445D01*
X938332Y314424D01*
X937506Y309210D01*
Y303930D01*
X938332Y298716D01*
X939963Y293695D01*
X941924Y289846D01*
X940884Y289090D01*
X935024Y294951D01*
Y322015D01*
X954585Y341577D01*
X955147Y342417D01*
X955344Y343408D01*
Y439420D01*
X955147Y440411D01*
X954585Y441251D01*
X936805Y459031D01*
X936805Y459031D01*
X935965Y459593D01*
X934974Y459790D01*
X872490D01*
X871320Y460852D01*
Y469547D01*
X921311D01*
X922422Y469086D01*
X924666D01*
X925778Y469547D01*
X965595D01*
X975452Y459689D01*
X975913Y458577D01*
X977499Y456991D01*
X979572Y456132D01*
X981816D01*
X983889Y456991D01*
X985475Y458577D01*
X986334Y460650D01*
Y462894D01*
X985475Y464967D01*
X983889Y466553D01*
X982777Y467014D01*
X971403Y478388D01*
X969722Y479511D01*
X967740Y479906D01*
X925778D01*
X924666Y480366D01*
X922422D01*
X921311Y479906D01*
X905863D01*
Y554789D01*
X906324Y555900D01*
Y558144D01*
X905465Y560217D01*
X903879Y561803D01*
X901806Y562662D01*
D02*
G37*
G36*
X89136Y496326D02*
X86124D01*
X83214Y495546D01*
X80606Y494040D01*
X78476Y491910D01*
X76970Y489302D01*
X76190Y486392D01*
Y483380D01*
X76970Y480470D01*
X78476Y477862D01*
X80606Y475732D01*
X83214Y474226D01*
X86124Y473446D01*
X89136D01*
X92046Y474226D01*
X94654Y475732D01*
X96784Y477862D01*
X98290Y480470D01*
X99070Y483380D01*
Y486392D01*
X98290Y489302D01*
X96784Y491910D01*
X94654Y494040D01*
X92046Y495546D01*
X89136Y496326D01*
D02*
G37*
G36*
Y470926D02*
X86124D01*
X83214Y470146D01*
X80606Y468640D01*
X78476Y466510D01*
X76970Y463902D01*
X76190Y460992D01*
Y457980D01*
X76970Y455070D01*
X78476Y452462D01*
X80606Y450332D01*
X83214Y448826D01*
X86124Y448046D01*
X89136D01*
X92046Y448826D01*
X94654Y450332D01*
X96784Y452462D01*
X98290Y455070D01*
X99070Y457980D01*
Y460992D01*
X98290Y463902D01*
X96784Y466510D01*
X94654Y468640D01*
X92046Y470146D01*
X89136Y470926D01*
D02*
G37*
G36*
Y445526D02*
X86124D01*
X83214Y444746D01*
X80606Y443240D01*
X78476Y441110D01*
X76970Y438502D01*
X76190Y435592D01*
Y432580D01*
X76970Y429670D01*
X78476Y427062D01*
X80606Y424932D01*
X83214Y423426D01*
X86124Y422646D01*
X89136D01*
X92046Y423426D01*
X94654Y424932D01*
X96784Y427062D01*
X98290Y429670D01*
X99070Y432580D01*
Y435592D01*
X98290Y438502D01*
X96784Y441110D01*
X94654Y443240D01*
X92046Y444746D01*
X89136Y445526D01*
D02*
G37*
G36*
X196697Y631245D02*
X194454D01*
X192381Y630386D01*
X190794Y628800D01*
X189935Y626727D01*
Y624483D01*
X190396Y623371D01*
Y602402D01*
X189935Y601290D01*
Y599046D01*
X190396Y597934D01*
Y576965D01*
X189935Y575853D01*
Y573610D01*
X190396Y572498D01*
Y551528D01*
X189935Y550417D01*
Y548173D01*
X190396Y547061D01*
Y526092D01*
X189935Y524980D01*
Y522736D01*
X190396Y521624D01*
Y500655D01*
X189935Y499543D01*
Y497299D01*
X190396Y496188D01*
Y475218D01*
X189935Y474106D01*
Y471863D01*
X190396Y470751D01*
Y449781D01*
X190119Y449114D01*
X188470Y447464D01*
X187347Y445784D01*
X186952Y443802D01*
Y431421D01*
X186312Y431156D01*
X183902Y429306D01*
X182052Y426896D01*
X180889Y424089D01*
X180492Y421076D01*
Y414076D01*
X180889Y411063D01*
X182052Y408256D01*
X183902Y405845D01*
X186312Y403996D01*
X189119Y402833D01*
X192132Y402436D01*
X195145Y402833D01*
X197952Y403996D01*
X200362Y405845D01*
X202212Y408256D01*
X203375Y411063D01*
X203550Y412397D01*
X273216D01*
X273731Y411881D01*
X274753Y411198D01*
X275189Y410763D01*
X277262Y409904D01*
X279506D01*
X281579Y410763D01*
X283165Y412349D01*
X284024Y414422D01*
Y416666D01*
X283165Y418739D01*
X281579Y420325D01*
X279506Y421184D01*
X279079D01*
X279024Y421239D01*
X277344Y422361D01*
X275362Y422756D01*
X203550D01*
X203375Y424089D01*
X202212Y426896D01*
X200362Y429306D01*
X197952Y431156D01*
X197311Y431421D01*
Y441656D01*
X198176Y442520D01*
X198770Y442767D01*
X200357Y444353D01*
X201215Y446426D01*
Y448670D01*
X200755Y449781D01*
Y470751D01*
X201215Y471863D01*
Y474106D01*
X200755Y475218D01*
Y496188D01*
X201215Y497299D01*
Y499543D01*
X200755Y500655D01*
Y521624D01*
X201215Y522736D01*
Y524980D01*
X200755Y526092D01*
Y547061D01*
X201215Y548173D01*
Y550417D01*
X200755Y551528D01*
Y572498D01*
X201215Y573610D01*
Y575853D01*
X200755Y576965D01*
Y597934D01*
X201215Y599046D01*
Y601290D01*
X200755Y602402D01*
Y623371D01*
X201215Y624483D01*
Y626727D01*
X200357Y628800D01*
X198770Y630386D01*
X196697Y631245D01*
D02*
G37*
G36*
X178672Y432616D02*
X155592D01*
Y402536D01*
X178672D01*
Y432616D01*
D02*
G37*
G36*
X535926Y500044D02*
X533683D01*
X531610Y499185D01*
X530023Y497598D01*
X529164Y495526D01*
Y493282D01*
X530023Y491209D01*
X531610Y489622D01*
X532204Y489376D01*
X533301Y488279D01*
Y479806D01*
X533695Y477824D01*
X534818Y476143D01*
X540159Y470803D01*
Y432054D01*
X540553Y430072D01*
X541675Y428391D01*
X564988Y405079D01*
X565449Y403967D01*
X567035Y402381D01*
X569108Y401522D01*
X571352D01*
X573425Y402381D01*
X575011Y403967D01*
X575870Y406040D01*
Y408284D01*
X575011Y410357D01*
X573425Y411943D01*
X572313Y412404D01*
X550518Y434199D01*
Y472948D01*
X550518Y472948D01*
X550123Y474930D01*
X549001Y476610D01*
X543660Y481951D01*
Y490425D01*
X543265Y492407D01*
X542142Y494087D01*
X542142Y494087D01*
X540261Y495969D01*
X539586Y497598D01*
X537999Y499185D01*
X535926Y500044D01*
D02*
G37*
G36*
X89136Y420126D02*
X86124D01*
X83214Y419346D01*
X80606Y417840D01*
X78476Y415710D01*
X76970Y413102D01*
X76190Y410192D01*
Y407180D01*
X76970Y404270D01*
X78476Y401662D01*
X80606Y399532D01*
X83214Y398026D01*
X86124Y397246D01*
X89136D01*
X92046Y398026D01*
X94654Y399532D01*
X96784Y401662D01*
X98290Y404270D01*
X99070Y407180D01*
Y410192D01*
X98290Y413102D01*
X96784Y415710D01*
X94654Y417840D01*
X92046Y419346D01*
X89136Y420126D01*
D02*
G37*
G36*
X981562Y408178D02*
X979318D01*
X977245Y407319D01*
X975659Y405733D01*
X974800Y403660D01*
Y401416D01*
X975659Y399343D01*
X977245Y397757D01*
X979318Y396898D01*
X981562D01*
X983635Y397757D01*
X985221Y399343D01*
X986080Y401416D01*
Y403660D01*
X985221Y405733D01*
X983635Y407319D01*
X981562Y408178D01*
D02*
G37*
G36*
X966724Y601063D02*
X848106D01*
X846124Y600669D01*
X844444Y599547D01*
X836879Y591982D01*
X835767Y591521D01*
X834181Y589935D01*
X833322Y587862D01*
Y585618D01*
X834181Y583545D01*
X835767Y581959D01*
X837840Y581100D01*
X840084D01*
X842157Y581959D01*
X843743Y583545D01*
X844204Y584657D01*
X850251Y590704D01*
X964579D01*
X990247Y565037D01*
Y455789D01*
X960267Y425811D01*
X959145Y424130D01*
X958751Y422148D01*
Y403299D01*
X958290Y402188D01*
Y399944D01*
X959149Y397871D01*
X960735Y396285D01*
X962808Y395426D01*
X965052D01*
X967125Y396285D01*
X968711Y397871D01*
X969570Y399944D01*
Y402188D01*
X969109Y403299D01*
Y420003D01*
X999089Y449981D01*
X1000211Y451662D01*
X1000605Y453644D01*
Y567182D01*
X1000211Y569164D01*
X999089Y570844D01*
X970387Y599547D01*
X968706Y600669D01*
X966724Y601063D01*
D02*
G37*
G36*
X531109Y399030D02*
X528071D01*
X525136Y398244D01*
X522504Y396724D01*
X520356Y394576D01*
X518837Y391944D01*
X518050Y389009D01*
Y385971D01*
X518837Y383036D01*
X520356Y380404D01*
X522504Y378256D01*
X525136Y376736D01*
X528071Y375950D01*
X531109D01*
X534044Y376736D01*
X536676Y378256D01*
X538824Y380404D01*
X540344Y383036D01*
X541130Y385971D01*
Y389009D01*
X540344Y391944D01*
X538824Y394576D01*
X536676Y396724D01*
X534044Y398244D01*
X531109Y399030D01*
D02*
G37*
G36*
X505709D02*
X502671D01*
X499736Y398244D01*
X497104Y396724D01*
X494956Y394576D01*
X493437Y391944D01*
X492650Y389009D01*
Y385971D01*
X493437Y383036D01*
X494956Y380404D01*
X497104Y378256D01*
X499736Y376736D01*
X502671Y375950D01*
X505709D01*
X508644Y376736D01*
X511276Y378256D01*
X513424Y380404D01*
X514944Y383036D01*
X515730Y385971D01*
Y389009D01*
X514944Y391944D01*
X513424Y394576D01*
X511276Y396724D01*
X508644Y398244D01*
X505709Y399030D01*
D02*
G37*
G36*
X480309D02*
X477271D01*
X474336Y398244D01*
X471704Y396724D01*
X469556Y394576D01*
X468036Y391944D01*
X467250Y389009D01*
Y385971D01*
X468036Y383036D01*
X469556Y380404D01*
X471704Y378256D01*
X474336Y376736D01*
X477271Y375950D01*
X480309D01*
X483244Y376736D01*
X485876Y378256D01*
X488024Y380404D01*
X489543Y383036D01*
X490330Y385971D01*
Y389009D01*
X489543Y391944D01*
X488024Y394576D01*
X485876Y396724D01*
X483244Y398244D01*
X480309Y399030D01*
D02*
G37*
G36*
X178672Y396802D02*
X155592D01*
Y366722D01*
X178672D01*
Y396802D01*
D02*
G37*
G36*
X192132Y396902D02*
X189119Y396505D01*
X186312Y395342D01*
X183902Y393492D01*
X182052Y391082D01*
X180889Y388275D01*
X180492Y385262D01*
Y378262D01*
X180889Y375249D01*
X182052Y372442D01*
X183902Y370032D01*
X186312Y368182D01*
X189119Y367019D01*
X192132Y366622D01*
X195145Y367019D01*
X197952Y368182D01*
X200362Y370032D01*
X202212Y372442D01*
X203375Y375249D01*
X203772Y378262D01*
Y385262D01*
X203375Y388275D01*
X202212Y391082D01*
X200362Y393492D01*
X197952Y395342D01*
X195145Y396505D01*
X192132Y396902D01*
D02*
G37*
G36*
X398639Y338542D02*
X396634D01*
X394782Y337775D01*
X393364Y336357D01*
X393244Y336067D01*
X391870D01*
X391750Y336357D01*
X390332Y337775D01*
X388479Y338542D01*
X386474D01*
X384622Y337775D01*
X383204Y336357D01*
X383084Y336067D01*
X381710D01*
X381590Y336357D01*
X380172Y337775D01*
X378320Y338542D01*
X376315D01*
X374462Y337775D01*
X373044Y336357D01*
X372277Y334505D01*
Y332500D01*
X373044Y330647D01*
X374462Y329229D01*
X374752Y329109D01*
Y327735D01*
X374462Y327615D01*
X373044Y326197D01*
X372277Y324344D01*
Y322340D01*
X373044Y320487D01*
X374462Y319069D01*
X374752Y318949D01*
Y317575D01*
X374462Y317455D01*
X373044Y316037D01*
X372277Y314184D01*
Y312180D01*
X373044Y310327D01*
X374462Y308909D01*
X374752Y308789D01*
Y307415D01*
X374462Y307295D01*
X373044Y305877D01*
X372277Y304025D01*
Y302020D01*
X373044Y300167D01*
X374462Y298749D01*
X376315Y297982D01*
X378320D01*
X380172Y298749D01*
X381590Y300167D01*
X381710Y300457D01*
X383084D01*
X383204Y300167D01*
X384622Y298749D01*
X386474Y297982D01*
X388479D01*
X390332Y298749D01*
X391750Y300167D01*
X391870Y300457D01*
X393244D01*
X393364Y300167D01*
X394782Y298749D01*
X396634Y297982D01*
X398639D01*
X400492Y298749D01*
X401910Y300167D01*
X402677Y302020D01*
Y304025D01*
X401910Y305877D01*
X400492Y307295D01*
X400202Y307415D01*
Y308789D01*
X400492Y308909D01*
X401910Y310327D01*
X402677Y312180D01*
Y314184D01*
X401910Y316037D01*
X400492Y317455D01*
X400202Y317575D01*
Y318949D01*
X400492Y319069D01*
X401910Y320487D01*
X402677Y322340D01*
Y324344D01*
X401910Y326197D01*
X400492Y327615D01*
X400202Y327735D01*
Y329109D01*
X400492Y329229D01*
X401910Y330647D01*
X402677Y332500D01*
Y334505D01*
X401910Y336357D01*
X400492Y337775D01*
X398639Y338542D01*
D02*
G37*
G36*
X531109Y322830D02*
X528071D01*
X525136Y322044D01*
X522504Y320524D01*
X520356Y318376D01*
X518837Y315744D01*
X518050Y312809D01*
Y309771D01*
X518837Y306836D01*
X520356Y304204D01*
X522504Y302056D01*
X525136Y300536D01*
X528071Y299750D01*
X531109D01*
X534044Y300536D01*
X536676Y302056D01*
X538824Y304204D01*
X540344Y306836D01*
X541130Y309771D01*
Y312809D01*
X540344Y315744D01*
X538824Y318376D01*
X536676Y320524D01*
X534044Y322044D01*
X531109Y322830D01*
D02*
G37*
G36*
X505709D02*
X502671D01*
X499736Y322044D01*
X497104Y320524D01*
X494956Y318376D01*
X493437Y315744D01*
X492650Y312809D01*
Y309771D01*
X493437Y306836D01*
X494956Y304204D01*
X497104Y302056D01*
X499736Y300536D01*
X502671Y299750D01*
X505709D01*
X508644Y300536D01*
X511276Y302056D01*
X513424Y304204D01*
X514944Y306836D01*
X515730Y309771D01*
Y312809D01*
X514944Y315744D01*
X513424Y318376D01*
X511276Y320524D01*
X508644Y322044D01*
X505709Y322830D01*
D02*
G37*
G36*
X480309D02*
X477271D01*
X474336Y322044D01*
X471704Y320524D01*
X469556Y318376D01*
X468036Y315744D01*
X467250Y312809D01*
Y309771D01*
X468036Y306836D01*
X469556Y304204D01*
X471704Y302056D01*
X474336Y300536D01*
X477271Y299750D01*
X480309D01*
X483244Y300536D01*
X485876Y302056D01*
X488024Y304204D01*
X489543Y306836D01*
X490330Y309771D01*
Y312809D01*
X489543Y315744D01*
X488024Y318376D01*
X485876Y320524D01*
X483244Y322044D01*
X480309Y322830D01*
D02*
G37*
G36*
X73764Y340110D02*
X68484D01*
X63270Y339284D01*
X58249Y337653D01*
X53545Y335256D01*
X49274Y332153D01*
X45541Y328420D01*
X42438Y324149D01*
X40041Y319445D01*
X38410Y314424D01*
X37584Y309210D01*
Y303930D01*
X38410Y298716D01*
X40041Y293695D01*
X42438Y288991D01*
X45541Y284720D01*
X49274Y280987D01*
X53545Y277884D01*
X58249Y275487D01*
X63270Y273856D01*
X68484Y273030D01*
X73764D01*
X78978Y273856D01*
X83999Y275487D01*
X88703Y277884D01*
X92974Y280987D01*
X96707Y284720D01*
X99810Y288991D01*
X102207Y293695D01*
X103838Y298716D01*
X104664Y303930D01*
Y309210D01*
X103838Y314424D01*
X102207Y319445D01*
X99810Y324149D01*
X96707Y328420D01*
X92974Y332153D01*
X88703Y335256D01*
X83999Y337653D01*
X78978Y339284D01*
X73764Y340110D01*
D02*
G37*
G36*
X339958Y584506D02*
X337714D01*
X335641Y583647D01*
X334055Y582061D01*
X333196Y579988D01*
Y577744D01*
X334055Y575671D01*
X335641Y574085D01*
X336753Y573624D01*
X361088Y549289D01*
Y495554D01*
X361483Y493572D01*
X362606Y491892D01*
X430430Y424067D01*
Y261052D01*
X429257Y260566D01*
X424025Y265797D01*
Y423672D01*
X423631Y425654D01*
X422509Y427335D01*
X358240Y491603D01*
Y542290D01*
X357845Y544272D01*
X356722Y545952D01*
X356722Y545952D01*
X330768Y571907D01*
Y577150D01*
X331014Y577744D01*
Y579988D01*
X330155Y582061D01*
X328569Y583647D01*
X326496Y584506D01*
X324252D01*
X322179Y583647D01*
X320593Y582061D01*
X319734Y579988D01*
Y577744D01*
X320409Y576115D01*
Y569762D01*
X320803Y567780D01*
X321926Y566099D01*
X347881Y540145D01*
Y489458D01*
X348275Y487476D01*
X349398Y485796D01*
X413666Y421527D01*
Y263652D01*
X414061Y261670D01*
X415183Y259989D01*
X449989Y225185D01*
Y166826D01*
X449528Y165714D01*
Y163470D01*
X450387Y161397D01*
X451973Y159811D01*
X454046Y158952D01*
X456290D01*
X458363Y159811D01*
X459949Y161397D01*
X460808Y163470D01*
Y165714D01*
X460348Y166826D01*
Y225612D01*
X461521Y226098D01*
X525110Y162509D01*
X525156Y162398D01*
X524308Y161128D01*
X512566D01*
Y157985D01*
X512522Y157765D01*
Y131405D01*
X512566Y131185D01*
Y88926D01*
X512292Y59714D01*
X512295Y59702D01*
X512292Y59690D01*
X512388Y59207D01*
X512480Y58721D01*
X512487Y58711D01*
X512489Y58699D01*
X512566Y58584D01*
Y56948D01*
X547146D01*
Y57100D01*
X753364D01*
X754355Y57297D01*
X755195Y57859D01*
X762053Y64717D01*
X762615Y65557D01*
X762812Y66548D01*
X762812Y132531D01*
X771455Y141174D01*
X801624D01*
X802615Y141371D01*
X803455Y141933D01*
X834697Y173175D01*
X835259Y174015D01*
X835456Y175006D01*
Y279654D01*
X835259Y280645D01*
X834697Y281485D01*
X823521Y292661D01*
X822681Y293223D01*
X821690Y293420D01*
X718820D01*
X717829Y293223D01*
X716989Y292661D01*
X705559Y281231D01*
X704997Y280391D01*
X704800Y279400D01*
Y148393D01*
X694887Y138480D01*
X547928D01*
Y157765D01*
X547731Y158756D01*
X547169Y159596D01*
X547146Y159612D01*
Y161128D01*
X536396D01*
X535548Y162398D01*
X535992Y163470D01*
Y165714D01*
X535133Y167787D01*
X533547Y169373D01*
X532435Y169834D01*
X440789Y261479D01*
Y308822D01*
X442060Y308989D01*
X442636Y306836D01*
X444156Y304204D01*
X446304Y302056D01*
X448936Y300536D01*
X451871Y299750D01*
X454909D01*
X457844Y300536D01*
X460476Y302056D01*
X462624Y304204D01*
X464143Y306836D01*
X464930Y309771D01*
Y312809D01*
X464143Y315744D01*
X462624Y318376D01*
X460476Y320524D01*
X457844Y322044D01*
X454909Y322830D01*
X451871D01*
X448936Y322044D01*
X446304Y320524D01*
X444156Y318376D01*
X442636Y315744D01*
X442060Y313591D01*
X440789Y313758D01*
Y385022D01*
X442060Y385189D01*
X442636Y383036D01*
X444156Y380404D01*
X446304Y378256D01*
X448936Y376736D01*
X451871Y375950D01*
X454909D01*
X457844Y376736D01*
X460476Y378256D01*
X462624Y380404D01*
X464143Y383036D01*
X464930Y385971D01*
Y389009D01*
X464143Y391944D01*
X462624Y394576D01*
X460476Y396724D01*
X457844Y398244D01*
X454909Y399030D01*
X451871D01*
X448936Y398244D01*
X446304Y396724D01*
X444156Y394576D01*
X442636Y391944D01*
X442060Y389791D01*
X440789Y389958D01*
Y426212D01*
X440395Y428194D01*
X439272Y429874D01*
X371447Y497699D01*
Y551434D01*
X371447Y551434D01*
X371053Y553416D01*
X369930Y555097D01*
X344078Y580949D01*
X343617Y582061D01*
X342031Y583647D01*
X339958Y584506D01*
D02*
G37*
G36*
X158880Y76526D02*
X145880D01*
X143520Y76215D01*
X141321Y75304D01*
X139433Y73855D01*
X137984Y71967D01*
X137073Y69768D01*
X136762Y67408D01*
X137073Y65048D01*
X137984Y62849D01*
X139433Y60961D01*
X141321Y59512D01*
X143520Y58601D01*
X145880Y58290D01*
X158880D01*
X161240Y58601D01*
X163439Y59512D01*
X165327Y60961D01*
X166776Y62849D01*
X167687Y65048D01*
X167998Y67408D01*
X167687Y69768D01*
X166776Y71967D01*
X165327Y73855D01*
X163439Y75304D01*
X161240Y76215D01*
X158880Y76526D01*
D02*
G37*
%LPD*%
G36*
X853821Y490855D02*
Y353949D01*
X850519Y350647D01*
X850011Y351155D01*
X732409D01*
X732409Y473837D01*
X705739Y500507D01*
X844169D01*
X853821Y490855D01*
D02*
G37*
G36*
X710946Y467868D02*
Y433578D01*
X709676Y432308D01*
X691896D01*
X689356Y429768D01*
Y409448D01*
X691896Y406908D01*
X709676D01*
X712216Y404368D01*
Y371348D01*
X709676Y368808D01*
X694690D01*
X691388Y365506D01*
Y339344D01*
X694944Y335788D01*
X694944Y157226D01*
X683514Y145796D01*
X594106D01*
X584200Y155702D01*
Y341376D01*
X611632Y368808D01*
Y429514D01*
X639826Y457708D01*
X688086Y457708D01*
X690626Y460248D01*
Y467868D01*
X691896Y469138D01*
X709676D01*
X710946Y467868D01*
D02*
G37*
G36*
X952754Y439420D02*
Y343408D01*
X932434Y323088D01*
Y293878D01*
X990600Y235712D01*
Y143510D01*
X926592Y79502D01*
X834390D01*
X773430Y79502D01*
X770382Y82550D01*
X770382Y130810D01*
X774700Y135128D01*
X806704D01*
X840994Y169418D01*
Y333756D01*
X858520Y351282D01*
Y391668D01*
X861060Y394208D01*
X873252Y394208D01*
X875792Y396748D01*
Y410210D01*
X872490Y413512D01*
X872490Y457200D01*
X934974D01*
X952754Y439420D01*
D02*
G37*
G36*
X832866Y279654D02*
Y175006D01*
X801624Y143764D01*
X770382D01*
X760222Y133604D01*
X760222Y66548D01*
X753364Y59690D01*
X514882D01*
X515554Y131405D01*
X515112D01*
Y157765D01*
X545338D01*
Y135890D01*
X695960D01*
X707644Y147574D01*
X707390Y147828D01*
Y279400D01*
X718820Y290830D01*
X821690D01*
X832866Y279654D01*
D02*
G37*
D18*
X495808Y532638D02*
X597154D01*
X607568Y522224D01*
X477318Y514148D02*
X495808Y532638D01*
X477318Y507798D02*
Y514148D01*
X476758Y507238D02*
X477318Y507798D01*
D40*
X529856Y150188D02*
D03*
X455156D02*
D03*
D41*
X529856Y97588D02*
D03*
X455156D02*
D03*
D104*
X435610Y259334D02*
Y426212D01*
Y259334D02*
X530352Y164592D01*
X418846Y263652D02*
X455168Y227330D01*
Y164855D02*
Y227330D01*
X838962Y586740D02*
X848106Y595884D01*
X966724D02*
X995426Y567182D01*
X848106Y595884D02*
X966724D01*
X529856Y97588D02*
Y150188D01*
X900684Y474726D02*
X923544D01*
X900684D02*
Y557022D01*
X866394Y474726D02*
X900684D01*
X995426Y453644D02*
Y567182D01*
X963930Y422148D02*
X995426Y453644D01*
X963930Y401066D02*
Y422148D01*
X923544Y474726D02*
X967740D01*
X980694Y461772D01*
X418846Y263652D02*
Y423672D01*
X353060Y489458D02*
X418846Y423672D01*
X353060Y489458D02*
Y542290D01*
X325374Y578866D02*
X325588Y578652D01*
Y569762D02*
Y578652D01*
Y569762D02*
X353060Y542290D01*
X338836Y578866D02*
X366268Y551434D01*
Y495554D02*
Y551434D01*
Y495554D02*
X435610Y426212D01*
X866180Y473447D02*
Y474512D01*
X866140Y473407D02*
X866180Y473447D01*
X866140Y408429D02*
Y473407D01*
X866180Y474512D02*
X866394Y474726D01*
X534804Y494100D02*
Y494404D01*
X538480Y479806D02*
Y490425D01*
X534804Y494100D02*
X538480Y490425D01*
X617706Y443462D02*
X625328Y451084D01*
X614658Y443462D02*
X617706D01*
X606806Y435610D02*
X614658Y443462D01*
X545338Y432054D02*
Y472948D01*
X538480Y479806D02*
X545338Y472948D01*
Y432054D02*
X570230Y407162D01*
X275362Y417576D02*
X277394Y415544D01*
X192132Y417576D02*
X275362D01*
X277394Y415544D02*
X278384D01*
X192132Y417576D02*
Y443802D01*
X195575Y447245D01*
Y447548D01*
Y600168D02*
Y625605D01*
Y574731D02*
Y600168D01*
Y549295D02*
Y574731D01*
Y523858D02*
Y549295D01*
Y498421D02*
Y523858D01*
Y472985D02*
Y498421D01*
Y447548D02*
Y472985D01*
X625328Y451084D02*
Y459466D01*
X641350Y475488D01*
X712216D01*
X593090Y385826D02*
X597916Y390652D01*
Y459486D02*
X620776Y482346D01*
X597916Y390652D02*
Y459486D01*
X715954Y482346D02*
X727202Y471098D01*
X708152Y352044D02*
X727202Y371094D01*
Y471098D01*
X719074Y429768D02*
Y468630D01*
X712216Y475488D02*
X719074Y468630D01*
X702564Y413258D02*
X719074Y429768D01*
X620776Y482346D02*
X715954D01*
X703326Y352044D02*
X708152D01*
D109*
X303390Y161290D02*
D03*
X379590D02*
D03*
X354190D02*
D03*
X328790D02*
D03*
X379590Y237490D02*
D03*
X354190D02*
D03*
X328790D02*
D03*
X303390D02*
D03*
X603390D02*
D03*
X628790D02*
D03*
X654190D02*
D03*
X679590D02*
D03*
X603390Y161290D02*
D03*
X628790D02*
D03*
X654190D02*
D03*
X679590D02*
D03*
X453390Y387490D02*
D03*
X478790D02*
D03*
X504190D02*
D03*
X529590D02*
D03*
X453390Y311290D02*
D03*
X478790D02*
D03*
X504190D02*
D03*
X529590D02*
D03*
D110*
X796000Y107408D02*
D03*
X246380Y216408D02*
D03*
D111*
X796000D02*
D03*
X246380Y107408D02*
D03*
D112*
X890000Y67408D02*
D03*
Y256408D02*
D03*
X152380D02*
D03*
Y67408D02*
D03*
D113*
X214630Y836168D02*
D03*
X240030D02*
D03*
X265430D02*
D03*
X290830D02*
D03*
X316230D02*
D03*
X98298Y770636D02*
D03*
Y745236D02*
D03*
Y719836D02*
D03*
X546736Y836516D02*
D03*
X521336D02*
D03*
X495936D02*
D03*
X470536D02*
D03*
X801426D02*
D03*
X776026D02*
D03*
X750626D02*
D03*
X725226D02*
D03*
X699826D02*
D03*
D114*
X341630Y836168D02*
D03*
X572136Y836516D02*
D03*
X826826D02*
D03*
D115*
X192132Y381762D02*
D03*
X292970Y602234D02*
D03*
X192132Y417576D02*
D03*
D116*
X167132Y381762D02*
D03*
X267970Y602234D02*
D03*
X167132Y417576D02*
D03*
D117*
X98298Y796036D02*
D03*
D119*
X1003300Y812800D02*
D03*
X990600Y787400D02*
D03*
Y736600D02*
D03*
Y685800D02*
D03*
X1003300Y660400D02*
D03*
X990600Y635000D02*
D03*
X1003300Y609600D02*
D03*
X990600Y584200D02*
D03*
X977900Y812800D02*
D03*
X965200Y787400D02*
D03*
X977900Y762000D02*
D03*
X965200Y685800D02*
D03*
X977900Y660400D02*
D03*
X965200Y635000D02*
D03*
X977900Y609600D02*
D03*
X965200Y584200D02*
D03*
X977900Y558800D02*
D03*
X939800Y889000D02*
D03*
Y838200D02*
D03*
X952500Y812800D02*
D03*
X939800Y787400D02*
D03*
X952500Y762000D02*
D03*
X939800Y685800D02*
D03*
X952500Y660400D02*
D03*
X939800Y635000D02*
D03*
X952500Y609600D02*
D03*
X939800Y584200D02*
D03*
X952500Y558800D02*
D03*
X914400Y889000D02*
D03*
X927100Y863600D02*
D03*
X914400Y838200D02*
D03*
X927100Y812800D02*
D03*
X914400Y787400D02*
D03*
X927100Y762000D02*
D03*
X914400Y736600D02*
D03*
X927100Y660400D02*
D03*
X914400Y635000D02*
D03*
X927100Y609600D02*
D03*
X914400Y584200D02*
D03*
X927100Y558800D02*
D03*
X914400Y533400D02*
D03*
X889000Y889000D02*
D03*
X901700Y863600D02*
D03*
X889000Y838200D02*
D03*
X901700Y812800D02*
D03*
Y660400D02*
D03*
X889000Y635000D02*
D03*
X901700Y609600D02*
D03*
X889000Y584200D02*
D03*
Y533400D02*
D03*
X863600Y889000D02*
D03*
X876300Y863600D02*
D03*
X863600Y838200D02*
D03*
X876300Y812800D02*
D03*
X863600Y736600D02*
D03*
X876300Y609600D02*
D03*
X863600Y584200D02*
D03*
Y533400D02*
D03*
X838200Y889000D02*
D03*
X850900Y863600D02*
D03*
X838200Y736600D02*
D03*
X850900Y609600D02*
D03*
Y558800D02*
D03*
X838200Y533400D02*
D03*
X850900Y508000D02*
D03*
X812800Y889000D02*
D03*
X825500Y863600D02*
D03*
X812800Y736600D02*
D03*
X825500Y609600D02*
D03*
X812800Y584200D02*
D03*
X825500Y558800D02*
D03*
X812800Y533400D02*
D03*
X787400Y889000D02*
D03*
X800100Y863600D02*
D03*
X787400Y736600D02*
D03*
Y584200D02*
D03*
X800100Y558800D02*
D03*
X787400Y533400D02*
D03*
X762000Y889000D02*
D03*
X774700Y863600D02*
D03*
X762000Y736600D02*
D03*
X774700Y558800D02*
D03*
X762000Y533400D02*
D03*
X736600Y889000D02*
D03*
X749300Y863600D02*
D03*
X736600Y736600D02*
D03*
Y533400D02*
D03*
X749300Y508000D02*
D03*
X711200Y889000D02*
D03*
X723900Y863600D02*
D03*
X711200Y736600D02*
D03*
Y584200D02*
D03*
Y533400D02*
D03*
X723900Y508000D02*
D03*
X685800Y889000D02*
D03*
X698500Y863600D02*
D03*
Y812800D02*
D03*
X685800Y787400D02*
D03*
Y736600D02*
D03*
Y533400D02*
D03*
X698500Y508000D02*
D03*
X660400Y889000D02*
D03*
X673100Y863600D02*
D03*
X660400Y838200D02*
D03*
Y736600D02*
D03*
Y584200D02*
D03*
Y533400D02*
D03*
X635000Y889000D02*
D03*
X647700Y863600D02*
D03*
X635000Y838200D02*
D03*
X647700Y812800D02*
D03*
X635000Y787400D02*
D03*
Y736600D02*
D03*
Y584200D02*
D03*
X647700Y558800D02*
D03*
X635000Y533400D02*
D03*
X609600Y889000D02*
D03*
X622300Y863600D02*
D03*
X609600Y838200D02*
D03*
X622300Y812800D02*
D03*
X609600Y736600D02*
D03*
X584200Y889000D02*
D03*
X596900Y863600D02*
D03*
X584200Y787400D02*
D03*
Y736600D02*
D03*
X596900Y558800D02*
D03*
X558800Y889000D02*
D03*
X571500Y863600D02*
D03*
Y812800D02*
D03*
X558800Y736600D02*
D03*
Y381000D02*
D03*
X571500Y355600D02*
D03*
X558800Y330200D02*
D03*
X571500Y304800D02*
D03*
X558800Y279400D02*
D03*
X533400Y889000D02*
D03*
X546100Y863600D02*
D03*
X533400Y736600D02*
D03*
X546100Y711200D02*
D03*
Y406400D02*
D03*
X533400Y279400D02*
D03*
X508000Y889000D02*
D03*
X520700Y863600D02*
D03*
X508000Y736600D02*
D03*
X520700Y457200D02*
D03*
Y406400D02*
D03*
X508000Y127000D02*
D03*
Y76200D02*
D03*
X482600Y889000D02*
D03*
X495300Y863600D02*
D03*
X482600Y736600D02*
D03*
X495300Y558800D02*
D03*
X482600Y533400D02*
D03*
X495300Y508000D02*
D03*
Y457200D02*
D03*
X482600Y431800D02*
D03*
X495300Y406400D02*
D03*
Y152400D02*
D03*
X482600Y127000D02*
D03*
X495300Y101600D02*
D03*
X482600Y76200D02*
D03*
X457200Y889000D02*
D03*
X469900Y863600D02*
D03*
Y812800D02*
D03*
X457200Y787400D02*
D03*
Y736600D02*
D03*
X469900Y558800D02*
D03*
X457200Y533400D02*
D03*
X469900Y406400D02*
D03*
X431800Y889000D02*
D03*
X444500Y863600D02*
D03*
X431800Y838200D02*
D03*
Y736600D02*
D03*
Y127000D02*
D03*
Y76200D02*
D03*
X406400Y889000D02*
D03*
X419100Y863600D02*
D03*
X406400Y838200D02*
D03*
X419100Y812800D02*
D03*
X406400Y787400D02*
D03*
Y736600D02*
D03*
Y127000D02*
D03*
X419100Y101600D02*
D03*
X406400Y76200D02*
D03*
X381000Y889000D02*
D03*
X393700Y863600D02*
D03*
X381000Y838200D02*
D03*
X393700Y812800D02*
D03*
X381000Y736600D02*
D03*
X393700Y355600D02*
D03*
X381000Y127000D02*
D03*
X393700Y101600D02*
D03*
X381000Y76200D02*
D03*
X355600Y889000D02*
D03*
X368300Y863600D02*
D03*
X355600Y787400D02*
D03*
Y736600D02*
D03*
Y127000D02*
D03*
X368300Y101600D02*
D03*
X355600Y76200D02*
D03*
X330200Y889000D02*
D03*
X342900Y863600D02*
D03*
Y812800D02*
D03*
X330200Y736600D02*
D03*
Y431800D02*
D03*
Y330200D02*
D03*
Y127000D02*
D03*
X342900Y101600D02*
D03*
X330200Y76200D02*
D03*
X304800Y889000D02*
D03*
X317500Y863600D02*
D03*
X304800Y736600D02*
D03*
X317500Y711200D02*
D03*
Y609600D02*
D03*
X304800Y431800D02*
D03*
Y127000D02*
D03*
X317500Y101600D02*
D03*
X304800Y76200D02*
D03*
X279400Y889000D02*
D03*
X292100Y863600D02*
D03*
X279400Y736600D02*
D03*
X292100Y457200D02*
D03*
X279400Y127000D02*
D03*
X292100Y101600D02*
D03*
X279400Y76200D02*
D03*
X254000Y889000D02*
D03*
X266700Y863600D02*
D03*
X254000Y736600D02*
D03*
Y635000D02*
D03*
Y431800D02*
D03*
Y279400D02*
D03*
X266700Y152400D02*
D03*
X254000Y76200D02*
D03*
X228600Y889000D02*
D03*
X241300Y863600D02*
D03*
X228600Y736600D02*
D03*
Y635000D02*
D03*
Y279400D02*
D03*
X241300Y152400D02*
D03*
X228600Y76200D02*
D03*
X203200Y889000D02*
D03*
X215900Y863600D02*
D03*
X203200Y736600D02*
D03*
X215900Y457200D02*
D03*
Y406400D02*
D03*
Y304800D02*
D03*
X203200Y279400D02*
D03*
X215900Y254000D02*
D03*
X203200Y228600D02*
D03*
Y177800D02*
D03*
X215900Y152400D02*
D03*
X203200Y127000D02*
D03*
X215900Y101600D02*
D03*
X203200Y76200D02*
D03*
X177800Y889000D02*
D03*
X190500Y863600D02*
D03*
X177800Y838200D02*
D03*
X190500Y812800D02*
D03*
X177800Y787400D02*
D03*
Y736600D02*
D03*
X190500Y355600D02*
D03*
X177800Y330200D02*
D03*
X190500Y304800D02*
D03*
X177800Y279400D02*
D03*
X190500Y254000D02*
D03*
X177800Y228600D02*
D03*
X190500Y203200D02*
D03*
X177800Y177800D02*
D03*
X190500Y152400D02*
D03*
X177800Y127000D02*
D03*
X190500Y101600D02*
D03*
X177800Y76200D02*
D03*
X152400Y889000D02*
D03*
X165100Y863600D02*
D03*
X152400Y838200D02*
D03*
X165100Y812800D02*
D03*
X152400Y787400D02*
D03*
Y736600D02*
D03*
Y431800D02*
D03*
X165100Y355600D02*
D03*
X152400Y330200D02*
D03*
X165100Y304800D02*
D03*
X152400Y279400D02*
D03*
Y228600D02*
D03*
X165100Y203200D02*
D03*
X152400Y177800D02*
D03*
X165100Y152400D02*
D03*
X152400Y127000D02*
D03*
X165100Y101600D02*
D03*
X127000Y889000D02*
D03*
X139700Y863600D02*
D03*
X127000Y838200D02*
D03*
X139700Y812800D02*
D03*
X127000Y787400D02*
D03*
Y736600D02*
D03*
X139700Y406400D02*
D03*
Y355600D02*
D03*
X127000Y330200D02*
D03*
X139700Y304800D02*
D03*
X127000Y279400D02*
D03*
Y228600D02*
D03*
X139700Y203200D02*
D03*
X127000Y177800D02*
D03*
X139700Y152400D02*
D03*
X127000Y127000D02*
D03*
X139700Y101600D02*
D03*
X127000Y76200D02*
D03*
X101600Y889000D02*
D03*
X114300Y863600D02*
D03*
X101600Y838200D02*
D03*
X114300Y812800D02*
D03*
Y762000D02*
D03*
X101600Y381000D02*
D03*
X114300Y355600D02*
D03*
X101600Y330200D02*
D03*
X114300Y304800D02*
D03*
X101600Y279400D02*
D03*
X114300Y254000D02*
D03*
X101600Y228600D02*
D03*
X114300Y203200D02*
D03*
X101600Y177800D02*
D03*
X114300Y152400D02*
D03*
X101600Y127000D02*
D03*
X114300Y101600D02*
D03*
X101600Y76200D02*
D03*
X88900Y812800D02*
D03*
X76200Y685800D02*
D03*
X88900Y660400D02*
D03*
X76200Y381000D02*
D03*
X88900Y355600D02*
D03*
Y254000D02*
D03*
X76200Y228600D02*
D03*
X88900Y203200D02*
D03*
X76200Y177800D02*
D03*
X88900Y152400D02*
D03*
X76200Y127000D02*
D03*
X88900Y101600D02*
D03*
X76200Y76200D02*
D03*
X63500Y812800D02*
D03*
X50800Y787400D02*
D03*
X63500Y762000D02*
D03*
X50800Y736600D02*
D03*
X63500Y711200D02*
D03*
X50800Y685800D02*
D03*
X63500Y660400D02*
D03*
X50800Y381000D02*
D03*
X63500Y355600D02*
D03*
Y254000D02*
D03*
X50800Y228600D02*
D03*
X63500Y203200D02*
D03*
X50800Y177800D02*
D03*
X63500Y152400D02*
D03*
X50800Y127000D02*
D03*
X63500Y101600D02*
D03*
X50800Y76200D02*
D03*
X281686Y563880D02*
D03*
X530352Y164592D02*
D03*
X455168D02*
D03*
X965200Y254000D02*
D03*
X977900Y228600D02*
D03*
X965200Y203200D02*
D03*
X977900Y177800D02*
D03*
X965200Y152400D02*
D03*
X939800Y406400D02*
D03*
Y355600D02*
D03*
Y254000D02*
D03*
X952500Y228600D02*
D03*
X939800Y203200D02*
D03*
X952500Y177800D02*
D03*
X939800Y152400D02*
D03*
X952500Y127000D02*
D03*
X939800Y101600D02*
D03*
X927100Y431800D02*
D03*
X914400Y406400D02*
D03*
Y355600D02*
D03*
X927100Y330200D02*
D03*
X914400Y304800D02*
D03*
X927100Y279400D02*
D03*
X914400Y254000D02*
D03*
X927100Y228600D02*
D03*
X914400Y203200D02*
D03*
X927100Y177800D02*
D03*
X914400Y152400D02*
D03*
X927100Y127000D02*
D03*
X914400Y101600D02*
D03*
X901700Y431800D02*
D03*
X889000Y406400D02*
D03*
X901700Y381000D02*
D03*
X889000Y355600D02*
D03*
X901700Y330200D02*
D03*
X889000Y304800D02*
D03*
X901700Y279400D02*
D03*
Y228600D02*
D03*
X889000Y203200D02*
D03*
X901700Y177800D02*
D03*
X889000Y152400D02*
D03*
X901700Y127000D02*
D03*
X889000Y101600D02*
D03*
X876300Y431800D02*
D03*
Y381000D02*
D03*
Y330200D02*
D03*
X863600Y304800D02*
D03*
X876300Y279400D02*
D03*
X863600Y254000D02*
D03*
X876300Y228600D02*
D03*
X863600Y203200D02*
D03*
X876300Y177800D02*
D03*
X863600Y152400D02*
D03*
X876300Y127000D02*
D03*
X863600Y101600D02*
D03*
X850900Y330200D02*
D03*
Y279400D02*
D03*
Y228600D02*
D03*
Y177800D02*
D03*
X838200Y152400D02*
D03*
X850900Y127000D02*
D03*
X838200Y101600D02*
D03*
X825500Y127000D02*
D03*
Y254000D02*
D03*
Y203200D02*
D03*
X812800Y177800D02*
D03*
X800100Y254000D02*
D03*
X787400Y177800D02*
D03*
X800100Y152400D02*
D03*
X774700Y254000D02*
D03*
X762000Y228600D02*
D03*
Y177800D02*
D03*
X774700Y152400D02*
D03*
X749300Y254000D02*
D03*
X736600Y228600D02*
D03*
X749300Y203200D02*
D03*
X736600Y177800D02*
D03*
X749300Y152400D02*
D03*
X736600Y127000D02*
D03*
X749300Y101600D02*
D03*
X736600Y76200D02*
D03*
X723900Y254000D02*
D03*
X711200Y228600D02*
D03*
X723900Y203200D02*
D03*
X711200Y177800D02*
D03*
X723900Y152400D02*
D03*
X711200Y127000D02*
D03*
X723900Y101600D02*
D03*
X711200Y76200D02*
D03*
X685800Y127000D02*
D03*
X698500Y101600D02*
D03*
X685800Y76200D02*
D03*
X660400Y127000D02*
D03*
X673100Y101600D02*
D03*
X660400Y76200D02*
D03*
X635000Y127000D02*
D03*
X647700Y101600D02*
D03*
X635000Y76200D02*
D03*
X609600Y127000D02*
D03*
X622300Y101600D02*
D03*
X609600Y76200D02*
D03*
X584200Y127000D02*
D03*
X596900Y101600D02*
D03*
X584200Y76200D02*
D03*
X558800Y127000D02*
D03*
X571500Y101600D02*
D03*
X558800Y76200D02*
D03*
X825500Y482600D02*
D03*
X800100D02*
D03*
X787400Y457200D02*
D03*
Y406400D02*
D03*
Y355600D02*
D03*
X774700Y482600D02*
D03*
Y431800D02*
D03*
Y381000D02*
D03*
X749300Y482600D02*
D03*
X685800Y406400D02*
D03*
Y355600D02*
D03*
Y304800D02*
D03*
Y254000D02*
D03*
Y203200D02*
D03*
X673100Y431800D02*
D03*
X660400Y406400D02*
D03*
X673100Y381000D02*
D03*
X660400Y355600D02*
D03*
X673100Y330200D02*
D03*
X660400Y304800D02*
D03*
X673100Y279400D02*
D03*
X660400Y254000D02*
D03*
Y203200D02*
D03*
X673100Y177800D02*
D03*
X647700Y431800D02*
D03*
Y381000D02*
D03*
X635000Y355600D02*
D03*
X647700Y330200D02*
D03*
X635000Y304800D02*
D03*
X647700Y279400D02*
D03*
X635000Y254000D02*
D03*
Y203200D02*
D03*
X647700Y177800D02*
D03*
X622300Y431800D02*
D03*
Y381000D02*
D03*
X609600Y355600D02*
D03*
X622300Y330200D02*
D03*
X609600Y304800D02*
D03*
X622300Y279400D02*
D03*
X609600Y254000D02*
D03*
Y203200D02*
D03*
X622300Y177800D02*
D03*
X393700Y228600D02*
D03*
X381000Y203200D02*
D03*
X393700Y177800D02*
D03*
X368300Y228600D02*
D03*
X355600Y203200D02*
D03*
X368300Y177800D02*
D03*
X342900Y228600D02*
D03*
X330200Y203200D02*
D03*
X342900Y177800D02*
D03*
X317500Y228600D02*
D03*
X304800Y203200D02*
D03*
X317500Y177800D02*
D03*
X292100Y228600D02*
D03*
X279400Y203200D02*
D03*
X292100Y177800D02*
D03*
X266700D02*
D03*
X241300D02*
D03*
X476504Y546862D02*
D03*
X431546Y458470D02*
D03*
X303276Y462280D02*
D03*
X838962Y586740D02*
D03*
X900684Y557022D02*
D03*
X963930Y401066D02*
D03*
X607568Y522224D02*
D03*
X923544Y474726D02*
D03*
X980694Y461772D02*
D03*
X325374Y578866D02*
D03*
X338836D02*
D03*
X866394Y474726D02*
D03*
X866140Y408126D02*
D03*
X980440Y402538D02*
D03*
X534804Y494404D02*
D03*
X606806Y435610D02*
D03*
X338836Y534162D02*
D03*
X322834D02*
D03*
X195575Y447548D02*
D03*
Y600168D02*
D03*
Y472985D02*
D03*
Y498421D02*
D03*
Y523858D02*
D03*
Y549295D02*
D03*
Y574731D02*
D03*
X476758Y507238D02*
D03*
X570230Y407162D02*
D03*
X593090Y385826D02*
D03*
X703326Y352044D02*
D03*
X702564Y413258D02*
D03*
X278384Y415544D02*
D03*
X195575Y625605D02*
D03*
D120*
X397637Y303022D02*
D03*
X387477D02*
D03*
X377317D02*
D03*
X397637Y313182D02*
D03*
X387477D02*
D03*
X377317D02*
D03*
X397637Y323342D02*
D03*
X387477D02*
D03*
X377317D02*
D03*
X397637Y333502D02*
D03*
X387477D02*
D03*
X377317D02*
D03*
D121*
X971150Y862031D02*
D03*
X71149D02*
D03*
X71124Y306570D02*
D03*
X971046D02*
D03*
D122*
X87630Y408686D02*
D03*
Y434086D02*
D03*
X62230Y434086D02*
D03*
X87630Y459486D02*
D03*
X62230D02*
D03*
X87630Y484886D02*
D03*
X62230D02*
D03*
X87630Y510286D02*
D03*
X62230D02*
D03*
Y637286D02*
D03*
X87630D02*
D03*
X62230Y611886D02*
D03*
X87630D02*
D03*
X62230Y586486D02*
D03*
X87630D02*
D03*
X62230Y561086D02*
D03*
X87630Y561086D02*
D03*
X62230Y535686D02*
D03*
X87630Y535686D02*
D03*
X62230Y408686D02*
D03*
M02*
