G04*
G04 #@! TF.GenerationSoftware,Altium Limited,Altium Designer,23.4.1 (23)*
G04*
G04 Layer_Color=8421504*
%FSLAX44Y44*%
%MOMM*%
G71*
G04*
G04 #@! TF.SameCoordinates,77ABDD02-67A3-4E24-B7DB-6919BA7AE113*
G04*
G04*
G04 #@! TF.FilePolarity,Positive*
G04*
G01*
G75*
%ADD27R,0.9017X0.6096*%
%ADD28R,1.7145X1.7653*%
%ADD29R,1.2330X1.3000*%
%ADD30R,0.9150X1.2200*%
%ADD31R,0.5080X0.8890*%
%ADD32R,3.4000X1.3000*%
G04:AMPARAMS|DCode=33|XSize=1.27mm|YSize=1.6002mm|CornerRadius=0mm|HoleSize=0mm|Usage=FLASHONLY|Rotation=225.000|XOffset=0mm|YOffset=0mm|HoleType=Round|Shape=Rectangle|*
%AMROTATEDRECTD33*
4,1,4,-0.1167,1.0148,1.0148,-0.1167,0.1167,-1.0148,-1.0148,0.1167,-0.1167,1.0148,0.0*
%
%ADD33ROTATEDRECTD33*%

%ADD34R,1.0000X0.9500*%
%ADD35R,0.9500X1.0000*%
%ADD36R,1.4500X0.7000*%
%ADD37R,0.7000X1.4500*%
%ADD38R,1.2200X0.9150*%
%ADD39R,0.8000X0.8000*%
%ADD40R,2.9500X1.6800*%
%ADD41R,2.9500X7.6200*%
G04:AMPARAMS|DCode=42|XSize=0.47mm|YSize=0.6mm|CornerRadius=0.0493mm|HoleSize=0mm|Usage=FLASHONLY|Rotation=180.000|XOffset=0mm|YOffset=0mm|HoleType=Round|Shape=RoundedRectangle|*
%AMROUNDEDRECTD42*
21,1,0.4700,0.5013,0,0,180.0*
21,1,0.3713,0.6000,0,0,180.0*
1,1,0.0987,-0.1857,0.2507*
1,1,0.0987,0.1857,0.2507*
1,1,0.0987,0.1857,-0.2507*
1,1,0.0987,-0.1857,-0.2507*
%
%ADD42ROUNDEDRECTD42*%
%ADD43R,1.2192X0.6096*%
%ADD44R,1.2700X0.6096*%
%ADD45R,1.6000X1.1000*%
%ADD46R,1.6002X1.2700*%
G04:AMPARAMS|DCode=47|XSize=0.6mm|YSize=1mm|CornerRadius=0.15mm|HoleSize=0mm|Usage=FLASHONLY|Rotation=180.000|XOffset=0mm|YOffset=0mm|HoleType=Round|Shape=RoundedRectangle|*
%AMROUNDEDRECTD47*
21,1,0.6000,0.7000,0,0,180.0*
21,1,0.3000,1.0000,0,0,180.0*
1,1,0.3000,-0.1500,0.3500*
1,1,0.3000,0.1500,0.3500*
1,1,0.3000,0.1500,-0.3500*
1,1,0.3000,-0.1500,-0.3500*
%
%ADD47ROUNDEDRECTD47*%
G04:AMPARAMS|DCode=48|XSize=0.3mm|YSize=1.45mm|CornerRadius=0mm|HoleSize=0mm|Usage=FLASHONLY|Rotation=315.000|XOffset=0mm|YOffset=0mm|HoleType=Round|Shape=Round|*
%AMOVALD48*
21,1,1.1500,0.3000,0.0000,0.0000,45.0*
1,1,0.3000,-0.4066,-0.4066*
1,1,0.3000,0.4066,0.4066*
%
%ADD48OVALD48*%

G04:AMPARAMS|DCode=49|XSize=0.3mm|YSize=1.45mm|CornerRadius=0mm|HoleSize=0mm|Usage=FLASHONLY|Rotation=225.000|XOffset=0mm|YOffset=0mm|HoleType=Round|Shape=Round|*
%AMOVALD49*
21,1,1.1500,0.3000,0.0000,0.0000,315.0*
1,1,0.3000,-0.4066,0.4066*
1,1,0.3000,0.4066,-0.4066*
%
%ADD49OVALD49*%

G04:AMPARAMS|DCode=50|XSize=0.6mm|YSize=1mm|CornerRadius=0.15mm|HoleSize=0mm|Usage=FLASHONLY|Rotation=90.000|XOffset=0mm|YOffset=0mm|HoleType=Round|Shape=RoundedRectangle|*
%AMROUNDEDRECTD50*
21,1,0.6000,0.7000,0,0,90.0*
21,1,0.3000,1.0000,0,0,90.0*
1,1,0.3000,0.3500,0.1500*
1,1,0.3000,0.3500,-0.1500*
1,1,0.3000,-0.3500,-0.1500*
1,1,0.3000,-0.3500,0.1500*
%
%ADD50ROUNDEDRECTD50*%
%ADD51R,1.2700X1.6002*%
%ADD52R,1.2000X0.6500*%
%ADD53R,0.5000X0.7000*%
%ADD54R,1.3000X3.4000*%
%ADD55R,1.4501X1.0000*%
%ADD56R,0.9000X1.4000*%
%ADD57R,0.9000X1.8000*%
G04:AMPARAMS|DCode=58|XSize=1.9mm|YSize=3.4mm|CornerRadius=0mm|HoleSize=0mm|Usage=FLASHONLY|Rotation=0.000|XOffset=0mm|YOffset=0mm|HoleType=Round|Shape=Octagon|*
%AMOCTAGOND58*
4,1,8,-0.4750,1.7000,0.4750,1.7000,0.9500,1.2250,0.9500,-1.2250,0.4750,-1.7000,-0.4750,-1.7000,-0.9500,-1.2250,-0.9500,1.2250,-0.4750,1.7000,0.0*
%
%ADD58OCTAGOND58*%

D27*
X411671Y311912D02*
D03*
Y324612D02*
D03*
D28*
X397320Y308801D02*
D03*
X397447Y327724D02*
D03*
X379032D02*
D03*
X378905Y308801D02*
D03*
D29*
X846265Y397494D02*
D03*
X830936D02*
D03*
X815606D02*
D03*
X815606Y381495D02*
D03*
X830936Y381495D02*
D03*
X846265D02*
D03*
X815606Y365495D02*
D03*
X830936Y365495D02*
D03*
X846265D02*
D03*
X722885Y365495D02*
D03*
X738214Y365495D02*
D03*
X753544D02*
D03*
Y381495D02*
D03*
X738214Y381495D02*
D03*
X722885Y381495D02*
D03*
X753544Y397494D02*
D03*
X738214Y397494D02*
D03*
X722885Y397494D02*
D03*
X846265Y460656D02*
D03*
X830935D02*
D03*
X815605D02*
D03*
X815605Y444656D02*
D03*
X830935Y444656D02*
D03*
X846265Y444656D02*
D03*
X815605Y428656D02*
D03*
X830935Y428656D02*
D03*
X846265Y428656D02*
D03*
X722885Y428656D02*
D03*
X738215Y428656D02*
D03*
X753545Y428656D02*
D03*
Y444656D02*
D03*
X738215D02*
D03*
X722885Y444656D02*
D03*
X753545Y460656D02*
D03*
X738215Y460656D02*
D03*
X722885D02*
D03*
D30*
X561459Y437388D02*
D03*
X528709D02*
D03*
X871847Y570484D02*
D03*
X839097D02*
D03*
X929267Y384048D02*
D03*
X962017D02*
D03*
X634222Y397256D02*
D03*
X601472D02*
D03*
D31*
X900430Y570230D02*
D03*
X885190D02*
D03*
X363474Y591312D02*
D03*
X348234D02*
D03*
X363474Y612394D02*
D03*
X348234D02*
D03*
X289814Y535432D02*
D03*
X274574D02*
D03*
D32*
X882396Y758988D02*
D03*
Y699988D02*
D03*
X161036Y758988D02*
D03*
Y699988D02*
D03*
X837549Y758988D02*
D03*
Y699988D02*
D03*
X792702Y758988D02*
D03*
Y699988D02*
D03*
X747855Y758988D02*
D03*
Y699988D02*
D03*
X703008Y758988D02*
D03*
Y699988D02*
D03*
X658162Y758988D02*
D03*
Y699988D02*
D03*
X613315Y758988D02*
D03*
Y699988D02*
D03*
X568468Y758988D02*
D03*
Y699988D02*
D03*
X521336Y758988D02*
D03*
Y699988D02*
D03*
X430117Y758988D02*
D03*
Y699988D02*
D03*
X385270Y758988D02*
D03*
Y699988D02*
D03*
X340424Y758988D02*
D03*
Y699988D02*
D03*
X295577Y758988D02*
D03*
Y699988D02*
D03*
X250730Y758988D02*
D03*
Y699988D02*
D03*
X205883Y758988D02*
D03*
Y699988D02*
D03*
X657250Y507274D02*
D03*
Y448274D02*
D03*
X900938Y507274D02*
D03*
Y448274D02*
D03*
X474964Y699988D02*
D03*
Y758988D02*
D03*
D33*
X563462Y515964D02*
D03*
X549094Y501596D02*
D03*
D34*
X110364Y408686D02*
D03*
X126364D02*
D03*
X770126Y299210D02*
D03*
X754126D02*
D03*
X791814Y299464D02*
D03*
X807814D02*
D03*
X770126Y321310D02*
D03*
X754126D02*
D03*
X791718D02*
D03*
X807718D02*
D03*
X220498Y678688D02*
D03*
X236498D02*
D03*
X281609D02*
D03*
X265609D02*
D03*
X326719D02*
D03*
X310719D02*
D03*
X355830Y678434D02*
D03*
X371830D02*
D03*
X416940D02*
D03*
X400940D02*
D03*
X446050D02*
D03*
X462050D02*
D03*
X552271Y678688D02*
D03*
X536271D02*
D03*
X507161Y678434D02*
D03*
X491161D02*
D03*
X581382Y678688D02*
D03*
X597382D02*
D03*
X642492D02*
D03*
X626492D02*
D03*
X671602D02*
D03*
X687602D02*
D03*
X732713D02*
D03*
X716713D02*
D03*
X761823D02*
D03*
X777823D02*
D03*
X822934D02*
D03*
X806934D02*
D03*
X852044D02*
D03*
X868044D02*
D03*
X301880Y443484D02*
D03*
X317880D02*
D03*
X110364Y434086D02*
D03*
X126364D02*
D03*
X110364Y510286D02*
D03*
X126364D02*
D03*
X110364Y484886D02*
D03*
X126364D02*
D03*
X126364Y459486D02*
D03*
X110364D02*
D03*
Y535686D02*
D03*
X126364D02*
D03*
Y586486D02*
D03*
X110364D02*
D03*
X126364Y561086D02*
D03*
X110364D02*
D03*
X110364Y611886D02*
D03*
X126364D02*
D03*
X126364Y637286D02*
D03*
X110364D02*
D03*
X152018Y678688D02*
D03*
X136018D02*
D03*
X191388D02*
D03*
X175388D02*
D03*
D35*
X242724Y331750D02*
D03*
X242724Y347750D02*
D03*
X408432Y593980D02*
D03*
Y609980D02*
D03*
X383286Y593726D02*
D03*
Y609726D02*
D03*
D36*
X265441Y330352D02*
D03*
Y349352D02*
D03*
X289204Y349352D02*
D03*
Y330352D02*
D03*
X948690Y724662D02*
D03*
Y743662D02*
D03*
X980440Y430326D02*
D03*
Y449326D02*
D03*
X579628Y398780D02*
D03*
Y379780D02*
D03*
X980440Y411938D02*
D03*
Y392938D02*
D03*
X579902Y416122D02*
D03*
Y435122D02*
D03*
X816849Y514468D02*
D03*
Y495468D02*
D03*
D37*
X978408Y487934D02*
D03*
X959408D02*
D03*
X741482Y572770D02*
D03*
X760482D02*
D03*
X997408Y541020D02*
D03*
X978408D02*
D03*
X741482Y551434D02*
D03*
X760482D02*
D03*
X679246D02*
D03*
X698246D02*
D03*
X679246Y572770D02*
D03*
X698246D02*
D03*
X336042Y276604D02*
D03*
X317042D02*
D03*
X372060Y276350D02*
D03*
X353060D02*
D03*
X795986Y518922D02*
D03*
X776986D02*
D03*
X580086Y461264D02*
D03*
X561086D02*
D03*
X942644Y420878D02*
D03*
X961644D02*
D03*
X617424Y419608D02*
D03*
X598424D02*
D03*
X606552Y461518D02*
D03*
X625552D02*
D03*
X255778Y385785D02*
D03*
X236778D02*
D03*
X162102Y524075D02*
D03*
X181102D02*
D03*
X162102Y498566D02*
D03*
X181102D02*
D03*
X162102Y473202D02*
D03*
X181102D02*
D03*
X162102Y447548D02*
D03*
X181102D02*
D03*
X162102Y549656D02*
D03*
X181102D02*
D03*
X162102Y600601D02*
D03*
X181102D02*
D03*
X162102Y575092D02*
D03*
X181102D02*
D03*
X181102Y626110D02*
D03*
X162102D02*
D03*
D38*
X999490Y482735D02*
D03*
Y515485D02*
D03*
X219100Y326211D02*
D03*
X219100Y358961D02*
D03*
X925576Y715713D02*
D03*
Y748463D02*
D03*
X958342Y507627D02*
D03*
Y540377D02*
D03*
D39*
X296544Y277366D02*
D03*
X280544Y277366D02*
D03*
D40*
X455156Y150442D02*
D03*
X529856D02*
D03*
D41*
X455156Y97842D02*
D03*
X529856D02*
D03*
D42*
X926592Y525424D02*
D03*
X920092Y544424D02*
D03*
X933092D02*
D03*
D43*
X410210Y299212D02*
D03*
Y337312D02*
D03*
D44*
X354584Y299212D02*
D03*
Y311912D02*
D03*
Y324612D02*
D03*
Y337312D02*
D03*
D45*
X993648Y751822D02*
D03*
Y717822D02*
D03*
X417322Y453626D02*
D03*
Y419626D02*
D03*
D46*
X970878Y744982D02*
D03*
Y724662D02*
D03*
D47*
X614934Y506807D02*
D03*
X624434Y482807D02*
D03*
X605434D02*
D03*
D48*
X528891Y543576D02*
D03*
X525355Y547111D02*
D03*
X521820Y550647D02*
D03*
X518284Y554182D02*
D03*
X514749Y557718D02*
D03*
X511213Y561254D02*
D03*
X507677Y564789D02*
D03*
X504142Y568325D02*
D03*
X500606Y571860D02*
D03*
X497071Y575396D02*
D03*
X493535Y578931D02*
D03*
X490000Y582467D02*
D03*
X430249Y522716D02*
D03*
X433785Y519181D02*
D03*
X437320Y515645D02*
D03*
X440856Y512110D02*
D03*
X444392Y508574D02*
D03*
X447927Y505038D02*
D03*
X451463Y501503D02*
D03*
X454998Y497967D02*
D03*
X458534Y494432D02*
D03*
X462069Y490896D02*
D03*
X465605Y487361D02*
D03*
X469140Y483825D02*
D03*
D49*
Y582467D02*
D03*
X465605Y578931D02*
D03*
X462069Y575396D02*
D03*
X458534Y571860D02*
D03*
X454998Y568325D02*
D03*
X451463Y564789D02*
D03*
X447927Y561254D02*
D03*
X444392Y557718D02*
D03*
X440856Y554182D02*
D03*
X437320Y550647D02*
D03*
X433785Y547111D02*
D03*
X430249Y543576D02*
D03*
X490000Y483825D02*
D03*
X493535Y487361D02*
D03*
X497071Y490896D02*
D03*
X500606Y494432D02*
D03*
X504142Y497967D02*
D03*
X507677Y501503D02*
D03*
X511213Y505038D02*
D03*
X514749Y508574D02*
D03*
X518284Y512110D02*
D03*
X521820Y515645D02*
D03*
X525355Y519181D02*
D03*
X528891Y522716D02*
D03*
D50*
X861630Y505968D02*
D03*
X837630Y496468D02*
D03*
Y515468D02*
D03*
D51*
X375666Y534162D02*
D03*
X395986D02*
D03*
X320040Y416535D02*
D03*
X299720D02*
D03*
X256794D02*
D03*
X236474D02*
D03*
X320040Y386334D02*
D03*
X299720D02*
D03*
D52*
X865930Y400545D02*
D03*
X865930Y387845D02*
D03*
Y375145D02*
D03*
X865930Y362445D02*
D03*
X703220Y362445D02*
D03*
Y375145D02*
D03*
Y387845D02*
D03*
Y400545D02*
D03*
X865930Y463706D02*
D03*
Y451006D02*
D03*
X865930Y438306D02*
D03*
X865930Y425606D02*
D03*
X703220Y425606D02*
D03*
X703220Y438306D02*
D03*
X703220Y451006D02*
D03*
Y463706D02*
D03*
D53*
X805930Y361495D02*
D03*
Y374745D02*
D03*
X805930Y388245D02*
D03*
Y401495D02*
D03*
X763220Y401495D02*
D03*
Y388245D02*
D03*
Y374745D02*
D03*
Y361495D02*
D03*
X805930Y424656D02*
D03*
Y437906D02*
D03*
X805930Y451406D02*
D03*
X805930Y464656D02*
D03*
X763220Y464656D02*
D03*
X763220Y451406D02*
D03*
X763220Y437906D02*
D03*
X763220Y424656D02*
D03*
D54*
X507020Y433324D02*
D03*
X448020D02*
D03*
X355310Y375666D02*
D03*
X414310Y375666D02*
D03*
D55*
X236798Y438581D02*
D03*
Y460579D02*
D03*
X277298Y438581D02*
D03*
Y460579D02*
D03*
X301682Y575387D02*
D03*
Y553388D02*
D03*
X261182Y575387D02*
D03*
Y553388D02*
D03*
D56*
X390920Y443998D02*
D03*
X360920D02*
D03*
D57*
X375920Y441998D02*
D03*
D58*
Y415998D02*
D03*
M02*
