G04*
G04 #@! TF.GenerationSoftware,Altium Limited,Altium Designer,23.4.1 (23)*
G04*
G04 Layer_Color=16711935*
%FSLAX44Y44*%
%MOMM*%
G71*
G04*
G04 #@! TF.SameCoordinates,77ABDD02-67A3-4E24-B7DB-6919BA7AE113*
G04*
G04*
G04 #@! TF.FilePolarity,Negative*
G04*
G01*
G75*
%ADD69R,3.1532X1.8832*%
%ADD70R,3.1532X7.8232*%
%ADD90C,2.0032*%
%ADD91R,5.1192X5.1192*%
%ADD92C,5.1192*%
%ADD93O,2.8032X1.5032*%
%ADD94C,1.7532*%
%ADD95R,1.7532X1.7532*%
%ADD96O,2.0032X2.7032*%
%ADD97R,2.0032X2.7032*%
%ADD98R,1.7532X1.7532*%
%ADD100C,0.8232*%
%ADD101C,6.5524*%
%ADD123C,1.9832*%
G36*
X853948Y490982D02*
Y354076D01*
X850646Y350774D01*
X850138Y351282D01*
X737108D01*
X737108Y500634D01*
X844296D01*
X853948Y490982D01*
D02*
G37*
G36*
X710946Y467868D02*
Y433578D01*
X709676Y432308D01*
X691896D01*
X689356Y429768D01*
Y409448D01*
X691896Y406908D01*
X709676D01*
X712216Y404368D01*
Y371348D01*
X709676Y368808D01*
X694690D01*
X691388Y365506D01*
Y339344D01*
X694944Y335788D01*
X694944Y157226D01*
X683514Y145796D01*
X594106D01*
X584200Y155702D01*
Y341376D01*
X611632Y368808D01*
Y429514D01*
X639826Y457708D01*
X688086Y457708D01*
X690626Y460248D01*
Y467868D01*
X691896Y469138D01*
X709676D01*
X710946Y467868D01*
D02*
G37*
G36*
X414020Y246888D02*
Y154432D01*
X403098Y143510D01*
X294132D01*
X272796Y164846D01*
X244094D01*
X219202Y189738D01*
Y246797D01*
X229961Y257556D01*
X403352D01*
X414020Y246888D01*
D02*
G37*
G36*
X832866Y279654D02*
Y175006D01*
X801624Y143764D01*
X770382D01*
X760222Y133604D01*
X760222Y59944D01*
X514884D01*
X515554Y131405D01*
X515112D01*
Y158750D01*
X545338D01*
Y135890D01*
X695960D01*
X707644Y147574D01*
X707390Y147828D01*
Y279400D01*
X718820Y290830D01*
X821690D01*
X832866Y279654D01*
D02*
G37*
G36*
X953008Y439674D02*
Y343662D01*
X932688Y323342D01*
Y294132D01*
X990854Y235966D01*
Y143764D01*
X926846Y79756D01*
X834644D01*
X773684Y79756D01*
X770636Y82804D01*
X770636Y131064D01*
X774954Y135382D01*
X806958D01*
X841248Y169672D01*
Y334010D01*
X858774Y351536D01*
Y391922D01*
X861314Y394462D01*
X875030D01*
Y414273D01*
X870712Y414273D01*
X870712Y457454D01*
X935228Y457454D01*
X953008Y439674D01*
D02*
G37*
G36*
X288798Y136652D02*
X470916D01*
Y59944D01*
X218186D01*
X197358Y80772D01*
Y134620D01*
X218440Y155702D01*
X269748D01*
X288798Y136652D01*
D02*
G37*
D69*
X529856Y150188D02*
D03*
X455156D02*
D03*
D70*
X529856Y97588D02*
D03*
X455156D02*
D03*
D90*
X303390Y161290D02*
D03*
X379590D02*
D03*
X354190D02*
D03*
X328790D02*
D03*
X379590Y237490D02*
D03*
X354190D02*
D03*
X328790D02*
D03*
X303390D02*
D03*
X603390D02*
D03*
X628790D02*
D03*
X654190D02*
D03*
X679590D02*
D03*
X603390Y161290D02*
D03*
X628790D02*
D03*
X654190D02*
D03*
X679590D02*
D03*
X453390Y387490D02*
D03*
X478790D02*
D03*
X504190D02*
D03*
X529590D02*
D03*
X453390Y311290D02*
D03*
X478790D02*
D03*
X504190D02*
D03*
X529590D02*
D03*
D91*
X796000Y107408D02*
D03*
X246380Y216408D02*
D03*
D92*
X796000D02*
D03*
X246380Y107408D02*
D03*
D93*
X890000Y67408D02*
D03*
Y256408D02*
D03*
X152380D02*
D03*
Y67408D02*
D03*
D94*
X214630Y836168D02*
D03*
X240030D02*
D03*
X265430D02*
D03*
X290830D02*
D03*
X316230D02*
D03*
X98298Y770636D02*
D03*
Y745236D02*
D03*
Y719836D02*
D03*
X546736Y836516D02*
D03*
X521336D02*
D03*
X495936D02*
D03*
X470536D02*
D03*
X801426D02*
D03*
X776026D02*
D03*
X750626D02*
D03*
X725226D02*
D03*
X699826D02*
D03*
D95*
X341630Y836168D02*
D03*
X572136Y836516D02*
D03*
X826826D02*
D03*
D96*
X192132Y381762D02*
D03*
X292970Y602234D02*
D03*
X192132Y417576D02*
D03*
D97*
X167132Y381762D02*
D03*
X267970Y602234D02*
D03*
X167132Y417576D02*
D03*
D98*
X98298Y796036D02*
D03*
D100*
X1003300Y812800D02*
D03*
X990600Y787400D02*
D03*
Y736600D02*
D03*
Y685800D02*
D03*
X1003300Y660400D02*
D03*
X990600Y635000D02*
D03*
X1003300Y609600D02*
D03*
X990600Y584200D02*
D03*
X977900Y812800D02*
D03*
X965200Y787400D02*
D03*
X977900Y762000D02*
D03*
X965200Y685800D02*
D03*
X977900Y660400D02*
D03*
X965200Y635000D02*
D03*
X977900Y609600D02*
D03*
X965200Y584200D02*
D03*
X977900Y558800D02*
D03*
X939800Y889000D02*
D03*
Y838200D02*
D03*
X952500Y812800D02*
D03*
X939800Y787400D02*
D03*
X952500Y762000D02*
D03*
X939800Y685800D02*
D03*
X952500Y660400D02*
D03*
X939800Y635000D02*
D03*
X952500Y609600D02*
D03*
X939800Y584200D02*
D03*
X952500Y558800D02*
D03*
X914400Y889000D02*
D03*
X927100Y863600D02*
D03*
X914400Y838200D02*
D03*
X927100Y812800D02*
D03*
X914400Y787400D02*
D03*
X927100Y762000D02*
D03*
X914400Y736600D02*
D03*
X927100Y660400D02*
D03*
X914400Y635000D02*
D03*
X927100Y609600D02*
D03*
X914400Y584200D02*
D03*
X927100Y558800D02*
D03*
X914400Y533400D02*
D03*
X889000Y889000D02*
D03*
X901700Y863600D02*
D03*
X889000Y838200D02*
D03*
X901700Y812800D02*
D03*
Y660400D02*
D03*
X889000Y635000D02*
D03*
X901700Y609600D02*
D03*
X889000Y584200D02*
D03*
Y533400D02*
D03*
X863600Y889000D02*
D03*
X876300Y863600D02*
D03*
X863600Y838200D02*
D03*
X876300Y812800D02*
D03*
X863600Y736600D02*
D03*
X876300Y609600D02*
D03*
X863600Y584200D02*
D03*
Y533400D02*
D03*
X838200Y889000D02*
D03*
X850900Y863600D02*
D03*
X838200Y736600D02*
D03*
X850900Y609600D02*
D03*
Y558800D02*
D03*
X838200Y533400D02*
D03*
X850900Y508000D02*
D03*
X812800Y889000D02*
D03*
X825500Y863600D02*
D03*
X812800Y736600D02*
D03*
X825500Y609600D02*
D03*
X812800Y584200D02*
D03*
X825500Y558800D02*
D03*
X812800Y533400D02*
D03*
X787400Y889000D02*
D03*
X800100Y863600D02*
D03*
X787400Y736600D02*
D03*
Y584200D02*
D03*
X800100Y558800D02*
D03*
X787400Y533400D02*
D03*
X762000Y889000D02*
D03*
X774700Y863600D02*
D03*
X762000Y736600D02*
D03*
X774700Y558800D02*
D03*
X762000Y533400D02*
D03*
X736600Y889000D02*
D03*
X749300Y863600D02*
D03*
X736600Y736600D02*
D03*
Y533400D02*
D03*
X749300Y508000D02*
D03*
X711200Y889000D02*
D03*
X723900Y863600D02*
D03*
X711200Y736600D02*
D03*
Y584200D02*
D03*
Y533400D02*
D03*
X723900Y508000D02*
D03*
X685800Y889000D02*
D03*
X698500Y863600D02*
D03*
Y812800D02*
D03*
X685800Y787400D02*
D03*
Y736600D02*
D03*
Y533400D02*
D03*
X698500Y508000D02*
D03*
X660400Y889000D02*
D03*
X673100Y863600D02*
D03*
X660400Y838200D02*
D03*
Y736600D02*
D03*
Y584200D02*
D03*
Y533400D02*
D03*
X635000Y889000D02*
D03*
X647700Y863600D02*
D03*
X635000Y838200D02*
D03*
X647700Y812800D02*
D03*
X635000Y787400D02*
D03*
Y736600D02*
D03*
Y584200D02*
D03*
X647700Y558800D02*
D03*
X635000Y533400D02*
D03*
X609600Y889000D02*
D03*
X622300Y863600D02*
D03*
X609600Y838200D02*
D03*
X622300Y812800D02*
D03*
X609600Y736600D02*
D03*
X584200Y889000D02*
D03*
X596900Y863600D02*
D03*
X584200Y787400D02*
D03*
Y736600D02*
D03*
X596900Y558800D02*
D03*
X558800Y889000D02*
D03*
X571500Y863600D02*
D03*
Y812800D02*
D03*
X558800Y736600D02*
D03*
Y381000D02*
D03*
X571500Y355600D02*
D03*
X558800Y330200D02*
D03*
X571500Y304800D02*
D03*
X558800Y279400D02*
D03*
X533400Y889000D02*
D03*
X546100Y863600D02*
D03*
X533400Y736600D02*
D03*
X546100Y711200D02*
D03*
Y406400D02*
D03*
X533400Y279400D02*
D03*
X508000Y889000D02*
D03*
X520700Y863600D02*
D03*
X508000Y736600D02*
D03*
X520700Y457200D02*
D03*
Y406400D02*
D03*
X508000Y127000D02*
D03*
Y76200D02*
D03*
X482600Y889000D02*
D03*
X495300Y863600D02*
D03*
X482600Y736600D02*
D03*
X495300Y558800D02*
D03*
X482600Y533400D02*
D03*
X495300Y508000D02*
D03*
Y457200D02*
D03*
X482600Y431800D02*
D03*
X495300Y406400D02*
D03*
Y152400D02*
D03*
X482600Y127000D02*
D03*
X495300Y101600D02*
D03*
X482600Y76200D02*
D03*
X457200Y889000D02*
D03*
X469900Y863600D02*
D03*
Y812800D02*
D03*
X457200Y787400D02*
D03*
Y736600D02*
D03*
X469900Y558800D02*
D03*
X457200Y533400D02*
D03*
X469900Y406400D02*
D03*
X431800Y889000D02*
D03*
X444500Y863600D02*
D03*
X431800Y838200D02*
D03*
Y736600D02*
D03*
Y127000D02*
D03*
Y76200D02*
D03*
X406400Y889000D02*
D03*
X419100Y863600D02*
D03*
X406400Y838200D02*
D03*
X419100Y812800D02*
D03*
X406400Y787400D02*
D03*
Y736600D02*
D03*
Y127000D02*
D03*
X419100Y101600D02*
D03*
X406400Y76200D02*
D03*
X381000Y889000D02*
D03*
X393700Y863600D02*
D03*
X381000Y838200D02*
D03*
X393700Y812800D02*
D03*
X381000Y736600D02*
D03*
X393700Y355600D02*
D03*
X381000Y127000D02*
D03*
X393700Y101600D02*
D03*
X381000Y76200D02*
D03*
X355600Y889000D02*
D03*
X368300Y863600D02*
D03*
X355600Y787400D02*
D03*
Y736600D02*
D03*
Y127000D02*
D03*
X368300Y101600D02*
D03*
X355600Y76200D02*
D03*
X330200Y889000D02*
D03*
X342900Y863600D02*
D03*
Y812800D02*
D03*
X330200Y736600D02*
D03*
Y431800D02*
D03*
Y330200D02*
D03*
Y127000D02*
D03*
X342900Y101600D02*
D03*
X330200Y76200D02*
D03*
X304800Y889000D02*
D03*
X317500Y863600D02*
D03*
X304800Y736600D02*
D03*
X317500Y711200D02*
D03*
Y609600D02*
D03*
X304800Y431800D02*
D03*
Y127000D02*
D03*
X317500Y101600D02*
D03*
X304800Y76200D02*
D03*
X279400Y889000D02*
D03*
X292100Y863600D02*
D03*
X279400Y736600D02*
D03*
X292100Y457200D02*
D03*
X279400Y127000D02*
D03*
X292100Y101600D02*
D03*
X279400Y76200D02*
D03*
X254000Y889000D02*
D03*
X266700Y863600D02*
D03*
X254000Y736600D02*
D03*
Y635000D02*
D03*
Y431800D02*
D03*
Y279400D02*
D03*
X266700Y152400D02*
D03*
X254000Y76200D02*
D03*
X228600Y889000D02*
D03*
X241300Y863600D02*
D03*
X228600Y736600D02*
D03*
Y635000D02*
D03*
Y279400D02*
D03*
X241300Y152400D02*
D03*
X228600Y76200D02*
D03*
X203200Y889000D02*
D03*
X215900Y863600D02*
D03*
X203200Y736600D02*
D03*
X215900Y457200D02*
D03*
Y406400D02*
D03*
Y304800D02*
D03*
X203200Y279400D02*
D03*
X215900Y254000D02*
D03*
X203200Y228600D02*
D03*
Y177800D02*
D03*
X215900Y152400D02*
D03*
X203200Y127000D02*
D03*
X215900Y101600D02*
D03*
X203200Y76200D02*
D03*
X177800Y889000D02*
D03*
X190500Y863600D02*
D03*
X177800Y838200D02*
D03*
X190500Y812800D02*
D03*
X177800Y787400D02*
D03*
Y736600D02*
D03*
X190500Y355600D02*
D03*
X177800Y330200D02*
D03*
X190500Y304800D02*
D03*
X177800Y279400D02*
D03*
X190500Y254000D02*
D03*
X177800Y228600D02*
D03*
X190500Y203200D02*
D03*
X177800Y177800D02*
D03*
X190500Y152400D02*
D03*
X177800Y127000D02*
D03*
X190500Y101600D02*
D03*
X177800Y76200D02*
D03*
X152400Y889000D02*
D03*
X165100Y863600D02*
D03*
X152400Y838200D02*
D03*
X165100Y812800D02*
D03*
X152400Y787400D02*
D03*
Y736600D02*
D03*
Y431800D02*
D03*
X165100Y355600D02*
D03*
X152400Y330200D02*
D03*
X165100Y304800D02*
D03*
X152400Y279400D02*
D03*
Y228600D02*
D03*
X165100Y203200D02*
D03*
X152400Y177800D02*
D03*
X165100Y152400D02*
D03*
X152400Y127000D02*
D03*
X165100Y101600D02*
D03*
X127000Y889000D02*
D03*
X139700Y863600D02*
D03*
X127000Y838200D02*
D03*
X139700Y812800D02*
D03*
X127000Y787400D02*
D03*
Y736600D02*
D03*
X139700Y406400D02*
D03*
Y355600D02*
D03*
X127000Y330200D02*
D03*
X139700Y304800D02*
D03*
X127000Y279400D02*
D03*
Y228600D02*
D03*
X139700Y203200D02*
D03*
X127000Y177800D02*
D03*
X139700Y152400D02*
D03*
X127000Y127000D02*
D03*
X139700Y101600D02*
D03*
X127000Y76200D02*
D03*
X101600Y889000D02*
D03*
X114300Y863600D02*
D03*
X101600Y838200D02*
D03*
X114300Y812800D02*
D03*
Y762000D02*
D03*
X101600Y381000D02*
D03*
X114300Y355600D02*
D03*
X101600Y330200D02*
D03*
X114300Y304800D02*
D03*
X101600Y279400D02*
D03*
X114300Y254000D02*
D03*
X101600Y228600D02*
D03*
X114300Y203200D02*
D03*
X101600Y177800D02*
D03*
X114300Y152400D02*
D03*
X101600Y127000D02*
D03*
X114300Y101600D02*
D03*
X101600Y76200D02*
D03*
X88900Y812800D02*
D03*
X76200Y685800D02*
D03*
X88900Y660400D02*
D03*
X76200Y381000D02*
D03*
X88900Y355600D02*
D03*
Y254000D02*
D03*
X76200Y228600D02*
D03*
X88900Y203200D02*
D03*
X76200Y177800D02*
D03*
X88900Y152400D02*
D03*
X76200Y127000D02*
D03*
X88900Y101600D02*
D03*
X76200Y76200D02*
D03*
X63500Y812800D02*
D03*
X50800Y787400D02*
D03*
X63500Y762000D02*
D03*
X50800Y736600D02*
D03*
X63500Y711200D02*
D03*
X50800Y685800D02*
D03*
X63500Y660400D02*
D03*
X50800Y381000D02*
D03*
X63500Y355600D02*
D03*
Y254000D02*
D03*
X50800Y228600D02*
D03*
X63500Y203200D02*
D03*
X50800Y177800D02*
D03*
X63500Y152400D02*
D03*
X50800Y127000D02*
D03*
X63500Y101600D02*
D03*
X50800Y76200D02*
D03*
X281686Y563880D02*
D03*
X530352Y164592D02*
D03*
X455168D02*
D03*
X965200Y254000D02*
D03*
X977900Y228600D02*
D03*
X965200Y203200D02*
D03*
X977900Y177800D02*
D03*
X965200Y152400D02*
D03*
X939800Y406400D02*
D03*
Y355600D02*
D03*
Y254000D02*
D03*
X952500Y228600D02*
D03*
X939800Y203200D02*
D03*
X952500Y177800D02*
D03*
X939800Y152400D02*
D03*
X952500Y127000D02*
D03*
X939800Y101600D02*
D03*
X927100Y431800D02*
D03*
X914400Y406400D02*
D03*
Y355600D02*
D03*
X927100Y330200D02*
D03*
X914400Y304800D02*
D03*
X927100Y279400D02*
D03*
X914400Y254000D02*
D03*
X927100Y228600D02*
D03*
X914400Y203200D02*
D03*
X927100Y177800D02*
D03*
X914400Y152400D02*
D03*
X927100Y127000D02*
D03*
X914400Y101600D02*
D03*
X901700Y431800D02*
D03*
X889000Y406400D02*
D03*
X901700Y381000D02*
D03*
X889000Y355600D02*
D03*
X901700Y330200D02*
D03*
X889000Y304800D02*
D03*
X901700Y279400D02*
D03*
Y228600D02*
D03*
X889000Y203200D02*
D03*
X901700Y177800D02*
D03*
X889000Y152400D02*
D03*
X901700Y127000D02*
D03*
X889000Y101600D02*
D03*
X876300Y431800D02*
D03*
Y381000D02*
D03*
Y330200D02*
D03*
X863600Y304800D02*
D03*
X876300Y279400D02*
D03*
X863600Y254000D02*
D03*
X876300Y228600D02*
D03*
X863600Y203200D02*
D03*
X876300Y177800D02*
D03*
X863600Y152400D02*
D03*
X876300Y127000D02*
D03*
X863600Y101600D02*
D03*
X850900Y330200D02*
D03*
Y279400D02*
D03*
Y228600D02*
D03*
Y177800D02*
D03*
X838200Y152400D02*
D03*
X850900Y127000D02*
D03*
X838200Y101600D02*
D03*
X825500Y127000D02*
D03*
Y254000D02*
D03*
Y203200D02*
D03*
X812800Y177800D02*
D03*
X800100Y254000D02*
D03*
X787400Y177800D02*
D03*
X800100Y152400D02*
D03*
X774700Y254000D02*
D03*
X762000Y228600D02*
D03*
Y177800D02*
D03*
X774700Y152400D02*
D03*
X749300Y254000D02*
D03*
X736600Y228600D02*
D03*
X749300Y203200D02*
D03*
X736600Y177800D02*
D03*
X749300Y152400D02*
D03*
X736600Y127000D02*
D03*
X749300Y101600D02*
D03*
X736600Y76200D02*
D03*
X723900Y254000D02*
D03*
X711200Y228600D02*
D03*
X723900Y203200D02*
D03*
X711200Y177800D02*
D03*
X723900Y152400D02*
D03*
X711200Y127000D02*
D03*
X723900Y101600D02*
D03*
X711200Y76200D02*
D03*
X685800Y127000D02*
D03*
X698500Y101600D02*
D03*
X685800Y76200D02*
D03*
X660400Y127000D02*
D03*
X673100Y101600D02*
D03*
X660400Y76200D02*
D03*
X635000Y127000D02*
D03*
X647700Y101600D02*
D03*
X635000Y76200D02*
D03*
X609600Y127000D02*
D03*
X622300Y101600D02*
D03*
X609600Y76200D02*
D03*
X584200Y127000D02*
D03*
X596900Y101600D02*
D03*
X584200Y76200D02*
D03*
X558800Y127000D02*
D03*
X571500Y101600D02*
D03*
X558800Y76200D02*
D03*
X825500Y482600D02*
D03*
X800100D02*
D03*
X787400Y457200D02*
D03*
Y406400D02*
D03*
Y355600D02*
D03*
X774700Y482600D02*
D03*
Y431800D02*
D03*
Y381000D02*
D03*
X749300Y482600D02*
D03*
X685800Y406400D02*
D03*
Y355600D02*
D03*
Y304800D02*
D03*
Y254000D02*
D03*
Y203200D02*
D03*
X673100Y431800D02*
D03*
X660400Y406400D02*
D03*
X673100Y381000D02*
D03*
X660400Y355600D02*
D03*
X673100Y330200D02*
D03*
X660400Y304800D02*
D03*
X673100Y279400D02*
D03*
X660400Y254000D02*
D03*
Y203200D02*
D03*
X673100Y177800D02*
D03*
X647700Y431800D02*
D03*
Y381000D02*
D03*
X635000Y355600D02*
D03*
X647700Y330200D02*
D03*
X635000Y304800D02*
D03*
X647700Y279400D02*
D03*
X635000Y254000D02*
D03*
Y203200D02*
D03*
X647700Y177800D02*
D03*
X622300Y431800D02*
D03*
Y381000D02*
D03*
X609600Y355600D02*
D03*
X622300Y330200D02*
D03*
X609600Y304800D02*
D03*
X622300Y279400D02*
D03*
X609600Y254000D02*
D03*
Y203200D02*
D03*
X622300Y177800D02*
D03*
X393700Y228600D02*
D03*
X381000Y203200D02*
D03*
X393700Y177800D02*
D03*
X368300Y228600D02*
D03*
X355600Y203200D02*
D03*
X368300Y177800D02*
D03*
X342900Y228600D02*
D03*
X330200Y203200D02*
D03*
X342900Y177800D02*
D03*
X317500Y228600D02*
D03*
X304800Y203200D02*
D03*
X317500Y177800D02*
D03*
X292100Y228600D02*
D03*
X279400Y203200D02*
D03*
X292100Y177800D02*
D03*
X266700D02*
D03*
X241300D02*
D03*
X476504Y546862D02*
D03*
X431546Y458470D02*
D03*
X303276Y462280D02*
D03*
X838962Y586740D02*
D03*
X900684Y557022D02*
D03*
X963930Y401066D02*
D03*
X607568Y522224D02*
D03*
X923544Y474726D02*
D03*
X980694Y461772D02*
D03*
X325374Y578866D02*
D03*
X338836D02*
D03*
X866394Y474726D02*
D03*
X866140Y408126D02*
D03*
X980440Y402538D02*
D03*
X534804Y494404D02*
D03*
X606806Y435610D02*
D03*
X338836Y534162D02*
D03*
X322834D02*
D03*
X195575Y447548D02*
D03*
Y600168D02*
D03*
Y472985D02*
D03*
Y498421D02*
D03*
Y523858D02*
D03*
Y549295D02*
D03*
Y574731D02*
D03*
X476758Y507238D02*
D03*
X570230Y407162D02*
D03*
X593090Y385826D02*
D03*
X703326Y352044D02*
D03*
X702564Y413258D02*
D03*
X278384Y415544D02*
D03*
X195575Y625605D02*
D03*
D101*
X971150Y862031D02*
D03*
X71149D02*
D03*
X71124Y306570D02*
D03*
X971046D02*
D03*
D123*
X87630Y408686D02*
D03*
Y434086D02*
D03*
X62230Y434086D02*
D03*
X87630Y459486D02*
D03*
X62230D02*
D03*
X87630Y484886D02*
D03*
X62230D02*
D03*
X87630Y510286D02*
D03*
X62230D02*
D03*
Y637286D02*
D03*
X87630D02*
D03*
X62230Y611886D02*
D03*
X87630D02*
D03*
X62230Y586486D02*
D03*
X87630D02*
D03*
X62230Y561086D02*
D03*
X87630Y561086D02*
D03*
X62230Y535686D02*
D03*
X87630Y535686D02*
D03*
X62230Y408686D02*
D03*
M02*
