G04*
G04 #@! TF.GenerationSoftware,Altium Limited,Altium Designer,23.4.1 (23)*
G04*
G04 Layer_Color=8388736*
%FSLAX44Y44*%
%MOMM*%
G71*
G04*
G04 #@! TF.SameCoordinates,77ABDD02-67A3-4E24-B7DB-6919BA7AE113*
G04*
G04*
G04 #@! TF.FilePolarity,Negative*
G04*
G01*
G75*
%ADD59R,1.1182X1.4232*%
%ADD60R,0.7112X1.0922*%
%ADD61R,3.6032X1.5032*%
G04:AMPARAMS|DCode=62|XSize=1.4732mm|YSize=1.8034mm|CornerRadius=0mm|HoleSize=0mm|Usage=FLASHONLY|Rotation=225.000|XOffset=0mm|YOffset=0mm|HoleType=Round|Shape=Rectangle|*
%AMROTATEDRECTD62*
4,1,4,-0.1167,1.1585,1.1585,-0.1167,0.1167,-1.1585,-1.1585,0.1167,-0.1167,1.1585,0.0*
%
%ADD62ROTATEDRECTD62*%

%ADD63R,1.2032X1.1532*%
%ADD64R,1.1532X1.2032*%
%ADD65R,1.6532X0.9032*%
%ADD66R,0.9032X1.6532*%
%ADD67R,1.4232X1.1182*%
%ADD68R,1.0032X1.0032*%
%ADD69R,3.1532X1.8832*%
%ADD70R,3.1532X7.8232*%
G04:AMPARAMS|DCode=71|XSize=0.6732mm|YSize=0.8032mm|CornerRadius=0.151mm|HoleSize=0mm|Usage=FLASHONLY|Rotation=180.000|XOffset=0mm|YOffset=0mm|HoleType=Round|Shape=RoundedRectangle|*
%AMROUNDEDRECTD71*
21,1,0.6732,0.5013,0,0,180.0*
21,1,0.3713,0.8032,0,0,180.0*
1,1,0.3019,-0.1857,0.2507*
1,1,0.3019,0.1857,0.2507*
1,1,0.3019,0.1857,-0.2507*
1,1,0.3019,-0.1857,-0.2507*
%
%ADD71ROUNDEDRECTD71*%
%ADD72R,3.9620X4.0636*%
%ADD73R,1.3712X0.7616*%
%ADD74R,1.4220X0.7616*%
%ADD75R,1.8032X1.3032*%
%ADD76R,1.8034X1.4732*%
G04:AMPARAMS|DCode=77|XSize=0.8032mm|YSize=1.2032mm|CornerRadius=0.2516mm|HoleSize=0mm|Usage=FLASHONLY|Rotation=180.000|XOffset=0mm|YOffset=0mm|HoleType=Round|Shape=RoundedRectangle|*
%AMROUNDEDRECTD77*
21,1,0.8032,0.7000,0,0,180.0*
21,1,0.3000,1.2032,0,0,180.0*
1,1,0.5032,-0.1500,0.3500*
1,1,0.5032,0.1500,0.3500*
1,1,0.5032,0.1500,-0.3500*
1,1,0.5032,-0.1500,-0.3500*
%
%ADD77ROUNDEDRECTD77*%
G04:AMPARAMS|DCode=78|XSize=0.5032mm|YSize=1.6532mm|CornerRadius=0mm|HoleSize=0mm|Usage=FLASHONLY|Rotation=315.000|XOffset=0mm|YOffset=0mm|HoleType=Round|Shape=Round|*
%AMOVALD78*
21,1,1.1500,0.5032,0.0000,0.0000,45.0*
1,1,0.5032,-0.4066,-0.4066*
1,1,0.5032,0.4066,0.4066*
%
%ADD78OVALD78*%

G04:AMPARAMS|DCode=79|XSize=0.5032mm|YSize=1.6532mm|CornerRadius=0mm|HoleSize=0mm|Usage=FLASHONLY|Rotation=225.000|XOffset=0mm|YOffset=0mm|HoleType=Round|Shape=Round|*
%AMOVALD79*
21,1,1.1500,0.5032,0.0000,0.0000,315.0*
1,1,0.5032,-0.4066,0.4066*
1,1,0.5032,0.4066,-0.4066*
%
%ADD79OVALD79*%

G04:AMPARAMS|DCode=80|XSize=0.8032mm|YSize=1.2032mm|CornerRadius=0.2516mm|HoleSize=0mm|Usage=FLASHONLY|Rotation=90.000|XOffset=0mm|YOffset=0mm|HoleType=Round|Shape=RoundedRectangle|*
%AMROUNDEDRECTD80*
21,1,0.8032,0.7000,0,0,90.0*
21,1,0.3000,1.2032,0,0,90.0*
1,1,0.5032,0.3500,0.1500*
1,1,0.5032,0.3500,-0.1500*
1,1,0.5032,-0.3500,-0.1500*
1,1,0.5032,-0.3500,0.1500*
%
%ADD80ROUNDEDRECTD80*%
%ADD81R,1.4732X1.8034*%
%ADD82R,1.4032X0.8532*%
%ADD83R,0.7032X0.9032*%
%ADD84R,4.7032X4.9032*%
%ADD85R,1.5032X3.6032*%
%ADD86R,1.6533X1.2032*%
%ADD87R,1.1032X1.6032*%
%ADD88R,1.1032X2.0032*%
G04:AMPARAMS|DCode=89|XSize=2.1032mm|YSize=3.6032mm|CornerRadius=0mm|HoleSize=0mm|Usage=FLASHONLY|Rotation=0.000|XOffset=0mm|YOffset=0mm|HoleType=Round|Shape=Octagon|*
%AMOCTAGOND89*
4,1,8,-0.5258,1.8016,0.5258,1.8016,1.0516,1.2758,1.0516,-1.2758,0.5258,-1.8016,-0.5258,-1.8016,-1.0516,-1.2758,-1.0516,1.2758,-0.5258,1.8016,0.0*
%
%ADD89OCTAGOND89*%

%ADD90C,2.0032*%
%ADD91R,5.1192X5.1192*%
%ADD92C,5.1192*%
%ADD93O,2.8032X1.5032*%
%ADD94C,1.7532*%
%ADD95R,1.7532X1.7532*%
%ADD96O,2.0032X2.7032*%
%ADD97R,2.0032X2.7032*%
%ADD98R,1.7532X1.7532*%
%ADD99C,1.7272*%
%ADD100C,0.8232*%
%ADD101C,6.5524*%
G36*
X490462Y250281D02*
Y178456D01*
X490450D01*
X483108Y171114D01*
X474300D01*
X474218Y171196D01*
Y256794D01*
Y257635D01*
X483107D01*
X490462Y250281D01*
D02*
G37*
G36*
X510032Y257127D02*
Y171208D01*
X500622D01*
X493268Y178562D01*
Y250387D01*
X493279Y250387D01*
X500621Y257729D01*
X509429D01*
X510032Y257127D01*
D02*
G37*
D59*
X561459Y437388D02*
D03*
X528709D02*
D03*
X871847Y570484D02*
D03*
X839097D02*
D03*
X929267Y384048D02*
D03*
X962017D02*
D03*
X634222Y397256D02*
D03*
X601472D02*
D03*
D60*
X900430Y570230D02*
D03*
X885190D02*
D03*
X363474Y591312D02*
D03*
X348234D02*
D03*
X363474Y612394D02*
D03*
X348234D02*
D03*
X289814Y535432D02*
D03*
X274574D02*
D03*
D61*
X882396Y758988D02*
D03*
Y699988D02*
D03*
X161036Y758988D02*
D03*
Y699988D02*
D03*
X837549Y758988D02*
D03*
Y699988D02*
D03*
X792702Y758988D02*
D03*
Y699988D02*
D03*
X747855Y758988D02*
D03*
Y699988D02*
D03*
X703008Y758988D02*
D03*
Y699988D02*
D03*
X658162Y758988D02*
D03*
Y699988D02*
D03*
X613315Y758988D02*
D03*
Y699988D02*
D03*
X568468Y758988D02*
D03*
Y699988D02*
D03*
X521336Y758988D02*
D03*
Y699988D02*
D03*
X430117Y758988D02*
D03*
Y699988D02*
D03*
X385270Y758988D02*
D03*
Y699988D02*
D03*
X340424Y758988D02*
D03*
Y699988D02*
D03*
X295577Y758988D02*
D03*
Y699988D02*
D03*
X250730Y758988D02*
D03*
Y699988D02*
D03*
X205883Y758988D02*
D03*
Y699988D02*
D03*
X657250Y507274D02*
D03*
Y448274D02*
D03*
X900938Y507274D02*
D03*
Y448274D02*
D03*
X474964Y699988D02*
D03*
Y758988D02*
D03*
D62*
X563462Y515964D02*
D03*
X549094Y501596D02*
D03*
D63*
X110364Y408686D02*
D03*
X126364D02*
D03*
X770126Y299210D02*
D03*
X754126D02*
D03*
X791814Y299464D02*
D03*
X807814D02*
D03*
X770126Y321310D02*
D03*
X754126D02*
D03*
X791718D02*
D03*
X807718D02*
D03*
X220498Y678688D02*
D03*
X236498D02*
D03*
X281609D02*
D03*
X265609D02*
D03*
X326719D02*
D03*
X310719D02*
D03*
X355830Y678434D02*
D03*
X371830D02*
D03*
X416940D02*
D03*
X400940D02*
D03*
X446050D02*
D03*
X462050D02*
D03*
X552271Y678688D02*
D03*
X536271D02*
D03*
X507161Y678434D02*
D03*
X491161D02*
D03*
X581382Y678688D02*
D03*
X597382D02*
D03*
X642492D02*
D03*
X626492D02*
D03*
X671602D02*
D03*
X687602D02*
D03*
X732713D02*
D03*
X716713D02*
D03*
X761823D02*
D03*
X777823D02*
D03*
X822934D02*
D03*
X806934D02*
D03*
X852044D02*
D03*
X868044D02*
D03*
X301880Y443484D02*
D03*
X317880D02*
D03*
X110364Y434086D02*
D03*
X126364D02*
D03*
X110364Y510286D02*
D03*
X126364D02*
D03*
X110364Y484886D02*
D03*
X126364D02*
D03*
X126364Y459486D02*
D03*
X110364D02*
D03*
Y535686D02*
D03*
X126364D02*
D03*
Y586486D02*
D03*
X110364D02*
D03*
X126364Y561086D02*
D03*
X110364D02*
D03*
X110364Y611886D02*
D03*
X126364D02*
D03*
X126364Y637286D02*
D03*
X110364D02*
D03*
X152018Y678688D02*
D03*
X136018D02*
D03*
X191388D02*
D03*
X175388D02*
D03*
D64*
X242724Y331750D02*
D03*
X242724Y347750D02*
D03*
X408432Y593980D02*
D03*
Y609980D02*
D03*
X383286Y593726D02*
D03*
Y609726D02*
D03*
D65*
X265441Y330352D02*
D03*
Y349352D02*
D03*
X289204Y349352D02*
D03*
Y330352D02*
D03*
X948690Y724662D02*
D03*
Y743662D02*
D03*
X980440Y430326D02*
D03*
Y449326D02*
D03*
X579628Y398780D02*
D03*
Y379780D02*
D03*
X980440Y411938D02*
D03*
Y392938D02*
D03*
X579902Y416122D02*
D03*
Y435122D02*
D03*
X816849Y514468D02*
D03*
Y495468D02*
D03*
D66*
X978408Y487934D02*
D03*
X959408D02*
D03*
X741482Y572770D02*
D03*
X760482D02*
D03*
X997408Y541020D02*
D03*
X978408D02*
D03*
X741482Y551434D02*
D03*
X760482D02*
D03*
X679246D02*
D03*
X698246D02*
D03*
X679246Y572770D02*
D03*
X698246D02*
D03*
X336042Y276604D02*
D03*
X317042D02*
D03*
X372060Y276350D02*
D03*
X353060D02*
D03*
X795986Y518922D02*
D03*
X776986D02*
D03*
X580086Y461264D02*
D03*
X561086D02*
D03*
X942644Y420878D02*
D03*
X961644D02*
D03*
X617424Y419608D02*
D03*
X598424D02*
D03*
X606552Y461518D02*
D03*
X625552D02*
D03*
X255778Y385785D02*
D03*
X236778D02*
D03*
X162102Y524075D02*
D03*
X181102D02*
D03*
X162102Y498566D02*
D03*
X181102D02*
D03*
X162102Y473202D02*
D03*
X181102D02*
D03*
X162102Y447548D02*
D03*
X181102D02*
D03*
X162102Y549656D02*
D03*
X181102D02*
D03*
X162102Y600601D02*
D03*
X181102D02*
D03*
X162102Y575092D02*
D03*
X181102D02*
D03*
X181102Y626110D02*
D03*
X162102D02*
D03*
D67*
X999490Y482735D02*
D03*
Y515485D02*
D03*
X219100Y326211D02*
D03*
X219100Y358961D02*
D03*
X925576Y715713D02*
D03*
Y748463D02*
D03*
X958342Y507627D02*
D03*
Y540377D02*
D03*
D68*
X296544Y277366D02*
D03*
X280544Y277366D02*
D03*
D69*
X455156Y150442D02*
D03*
X529856D02*
D03*
D70*
X455156Y97842D02*
D03*
X529856D02*
D03*
D71*
X926592Y525424D02*
D03*
X920092Y544424D02*
D03*
X933092D02*
D03*
D72*
X388112Y318262D02*
D03*
D73*
X410210Y299212D02*
D03*
Y311912D02*
D03*
Y324612D02*
D03*
Y337312D02*
D03*
D74*
X354584Y299212D02*
D03*
Y311912D02*
D03*
Y324612D02*
D03*
Y337312D02*
D03*
D75*
X993648Y751822D02*
D03*
Y717822D02*
D03*
X417322Y453626D02*
D03*
Y419626D02*
D03*
D76*
X970878Y744982D02*
D03*
Y724662D02*
D03*
D77*
X614934Y506807D02*
D03*
X624434Y482807D02*
D03*
X605434D02*
D03*
D78*
X528891Y543576D02*
D03*
X525355Y547111D02*
D03*
X521820Y550647D02*
D03*
X518284Y554182D02*
D03*
X514749Y557718D02*
D03*
X511213Y561254D02*
D03*
X507677Y564789D02*
D03*
X504142Y568325D02*
D03*
X500606Y571860D02*
D03*
X497071Y575396D02*
D03*
X493535Y578931D02*
D03*
X490000Y582467D02*
D03*
X430249Y522716D02*
D03*
X433785Y519181D02*
D03*
X437320Y515645D02*
D03*
X440856Y512110D02*
D03*
X444392Y508574D02*
D03*
X447927Y505038D02*
D03*
X451463Y501503D02*
D03*
X454998Y497967D02*
D03*
X458534Y494432D02*
D03*
X462069Y490896D02*
D03*
X465605Y487361D02*
D03*
X469140Y483825D02*
D03*
D79*
Y582467D02*
D03*
X465605Y578931D02*
D03*
X462069Y575396D02*
D03*
X458534Y571860D02*
D03*
X454998Y568325D02*
D03*
X451463Y564789D02*
D03*
X447927Y561254D02*
D03*
X444392Y557718D02*
D03*
X440856Y554182D02*
D03*
X437320Y550647D02*
D03*
X433785Y547111D02*
D03*
X430249Y543576D02*
D03*
X490000Y483825D02*
D03*
X493535Y487361D02*
D03*
X497071Y490896D02*
D03*
X500606Y494432D02*
D03*
X504142Y497967D02*
D03*
X507677Y501503D02*
D03*
X511213Y505038D02*
D03*
X514749Y508574D02*
D03*
X518284Y512110D02*
D03*
X521820Y515645D02*
D03*
X525355Y519181D02*
D03*
X528891Y522716D02*
D03*
D80*
X861630Y505968D02*
D03*
X837630Y496468D02*
D03*
Y515468D02*
D03*
D81*
X375666Y534162D02*
D03*
X395986D02*
D03*
X320040Y416535D02*
D03*
X299720D02*
D03*
X256794D02*
D03*
X236474D02*
D03*
X320040Y386334D02*
D03*
X299720D02*
D03*
D82*
X865930Y400545D02*
D03*
X865930Y387845D02*
D03*
Y375145D02*
D03*
X865930Y362445D02*
D03*
X703220Y362445D02*
D03*
Y375145D02*
D03*
Y387845D02*
D03*
Y400545D02*
D03*
X865930Y463706D02*
D03*
Y451006D02*
D03*
X865930Y438306D02*
D03*
X865930Y425606D02*
D03*
X703220Y425606D02*
D03*
X703220Y438306D02*
D03*
X703220Y451006D02*
D03*
Y463706D02*
D03*
D83*
X805930Y361495D02*
D03*
Y374745D02*
D03*
X805930Y388245D02*
D03*
Y401495D02*
D03*
X763220Y401495D02*
D03*
Y388245D02*
D03*
Y374745D02*
D03*
Y361495D02*
D03*
X805930Y424656D02*
D03*
Y437906D02*
D03*
X805930Y451406D02*
D03*
X805930Y464656D02*
D03*
X763220Y464656D02*
D03*
X763220Y451406D02*
D03*
X763220Y437906D02*
D03*
X763220Y424656D02*
D03*
D84*
X830930Y381495D02*
D03*
X738220Y381495D02*
D03*
X830930Y444656D02*
D03*
X738220Y444656D02*
D03*
D85*
X507020Y433324D02*
D03*
X448020D02*
D03*
X355310Y375666D02*
D03*
X414310Y375666D02*
D03*
D86*
X236798Y438581D02*
D03*
Y460579D02*
D03*
X277298Y438581D02*
D03*
Y460579D02*
D03*
X301682Y575387D02*
D03*
Y553388D02*
D03*
X261182Y575387D02*
D03*
Y553388D02*
D03*
D87*
X390920Y443998D02*
D03*
X360920D02*
D03*
D88*
X375920Y441998D02*
D03*
D89*
Y415998D02*
D03*
D90*
X303390Y161290D02*
D03*
X379590D02*
D03*
X354190D02*
D03*
X328790D02*
D03*
X379590Y237490D02*
D03*
X354190D02*
D03*
X328790D02*
D03*
X303390D02*
D03*
X603390D02*
D03*
X628790D02*
D03*
X654190D02*
D03*
X679590D02*
D03*
X603390Y161290D02*
D03*
X628790D02*
D03*
X654190D02*
D03*
X679590D02*
D03*
X453390Y387490D02*
D03*
X478790D02*
D03*
X504190D02*
D03*
X529590D02*
D03*
X453390Y311290D02*
D03*
X478790D02*
D03*
X504190D02*
D03*
X529590D02*
D03*
D91*
X796000Y107408D02*
D03*
X246380Y216408D02*
D03*
D92*
X796000D02*
D03*
X246380Y107408D02*
D03*
D93*
X890000Y67408D02*
D03*
Y256408D02*
D03*
X152380D02*
D03*
Y67408D02*
D03*
D94*
X214630Y836168D02*
D03*
X240030D02*
D03*
X265430D02*
D03*
X290830D02*
D03*
X316230D02*
D03*
X98298Y770636D02*
D03*
Y745236D02*
D03*
Y719836D02*
D03*
X546736Y836516D02*
D03*
X521336D02*
D03*
X495936D02*
D03*
X470536D02*
D03*
X801426D02*
D03*
X776026D02*
D03*
X750626D02*
D03*
X725226D02*
D03*
X699826D02*
D03*
D95*
X341630Y836168D02*
D03*
X572136Y836516D02*
D03*
X826826D02*
D03*
D96*
X192132Y381762D02*
D03*
X292970Y602234D02*
D03*
X192132Y417576D02*
D03*
D97*
X167132Y381762D02*
D03*
X267970Y602234D02*
D03*
X167132Y417576D02*
D03*
D98*
X98298Y796036D02*
D03*
D99*
X87630Y408686D02*
D03*
Y434086D02*
D03*
X62230Y434086D02*
D03*
X87630Y459486D02*
D03*
X62230D02*
D03*
X87630Y484886D02*
D03*
X62230D02*
D03*
X87630Y510286D02*
D03*
X62230D02*
D03*
Y637286D02*
D03*
X87630D02*
D03*
X62230Y611886D02*
D03*
X87630D02*
D03*
X62230Y586486D02*
D03*
X87630D02*
D03*
X62230Y561086D02*
D03*
X87630Y561086D02*
D03*
X62230Y535686D02*
D03*
X87630Y535686D02*
D03*
X62230Y408686D02*
D03*
D100*
X1003300Y812800D02*
D03*
X990600Y787400D02*
D03*
Y736600D02*
D03*
Y685800D02*
D03*
X1003300Y660400D02*
D03*
X990600Y635000D02*
D03*
X1003300Y609600D02*
D03*
X990600Y584200D02*
D03*
X977900Y812800D02*
D03*
X965200Y787400D02*
D03*
X977900Y762000D02*
D03*
X965200Y685800D02*
D03*
X977900Y660400D02*
D03*
X965200Y635000D02*
D03*
X977900Y609600D02*
D03*
X965200Y584200D02*
D03*
X977900Y558800D02*
D03*
X939800Y889000D02*
D03*
Y838200D02*
D03*
X952500Y812800D02*
D03*
X939800Y787400D02*
D03*
X952500Y762000D02*
D03*
X939800Y685800D02*
D03*
X952500Y660400D02*
D03*
X939800Y635000D02*
D03*
X952500Y609600D02*
D03*
X939800Y584200D02*
D03*
X952500Y558800D02*
D03*
X914400Y889000D02*
D03*
X927100Y863600D02*
D03*
X914400Y838200D02*
D03*
X927100Y812800D02*
D03*
X914400Y787400D02*
D03*
X927100Y762000D02*
D03*
X914400Y736600D02*
D03*
X927100Y660400D02*
D03*
X914400Y635000D02*
D03*
X927100Y609600D02*
D03*
X914400Y584200D02*
D03*
X927100Y558800D02*
D03*
X914400Y533400D02*
D03*
X889000Y889000D02*
D03*
X901700Y863600D02*
D03*
X889000Y838200D02*
D03*
X901700Y812800D02*
D03*
Y660400D02*
D03*
X889000Y635000D02*
D03*
X901700Y609600D02*
D03*
X889000Y584200D02*
D03*
Y533400D02*
D03*
X863600Y889000D02*
D03*
X876300Y863600D02*
D03*
X863600Y838200D02*
D03*
X876300Y812800D02*
D03*
X863600Y736600D02*
D03*
X876300Y609600D02*
D03*
X863600Y584200D02*
D03*
Y533400D02*
D03*
X838200Y889000D02*
D03*
X850900Y863600D02*
D03*
X838200Y736600D02*
D03*
X850900Y609600D02*
D03*
Y558800D02*
D03*
X838200Y533400D02*
D03*
X850900Y508000D02*
D03*
X812800Y889000D02*
D03*
X825500Y863600D02*
D03*
X812800Y736600D02*
D03*
X825500Y609600D02*
D03*
X812800Y584200D02*
D03*
X825500Y558800D02*
D03*
X812800Y533400D02*
D03*
X787400Y889000D02*
D03*
X800100Y863600D02*
D03*
X787400Y736600D02*
D03*
Y584200D02*
D03*
X800100Y558800D02*
D03*
X787400Y533400D02*
D03*
X762000Y889000D02*
D03*
X774700Y863600D02*
D03*
X762000Y736600D02*
D03*
X774700Y558800D02*
D03*
X762000Y533400D02*
D03*
X736600Y889000D02*
D03*
X749300Y863600D02*
D03*
X736600Y736600D02*
D03*
Y533400D02*
D03*
X749300Y508000D02*
D03*
X711200Y889000D02*
D03*
X723900Y863600D02*
D03*
X711200Y736600D02*
D03*
Y584200D02*
D03*
Y533400D02*
D03*
X723900Y508000D02*
D03*
X685800Y889000D02*
D03*
X698500Y863600D02*
D03*
Y812800D02*
D03*
X685800Y787400D02*
D03*
Y736600D02*
D03*
Y533400D02*
D03*
X698500Y508000D02*
D03*
X660400Y889000D02*
D03*
X673100Y863600D02*
D03*
X660400Y838200D02*
D03*
Y736600D02*
D03*
Y584200D02*
D03*
Y533400D02*
D03*
X635000Y889000D02*
D03*
X647700Y863600D02*
D03*
X635000Y838200D02*
D03*
X647700Y812800D02*
D03*
X635000Y787400D02*
D03*
Y736600D02*
D03*
Y584200D02*
D03*
X647700Y558800D02*
D03*
X635000Y533400D02*
D03*
X609600Y889000D02*
D03*
X622300Y863600D02*
D03*
X609600Y838200D02*
D03*
X622300Y812800D02*
D03*
X609600Y736600D02*
D03*
X584200Y889000D02*
D03*
X596900Y863600D02*
D03*
X584200Y787400D02*
D03*
Y736600D02*
D03*
X596900Y558800D02*
D03*
X558800Y889000D02*
D03*
X571500Y863600D02*
D03*
Y812800D02*
D03*
X558800Y736600D02*
D03*
Y381000D02*
D03*
X571500Y355600D02*
D03*
X558800Y330200D02*
D03*
X571500Y304800D02*
D03*
X558800Y279400D02*
D03*
X533400Y889000D02*
D03*
X546100Y863600D02*
D03*
X533400Y736600D02*
D03*
X546100Y711200D02*
D03*
Y406400D02*
D03*
X533400Y279400D02*
D03*
X508000Y889000D02*
D03*
X520700Y863600D02*
D03*
X508000Y736600D02*
D03*
X520700Y457200D02*
D03*
Y406400D02*
D03*
X508000Y127000D02*
D03*
Y76200D02*
D03*
X482600Y889000D02*
D03*
X495300Y863600D02*
D03*
X482600Y736600D02*
D03*
X495300Y558800D02*
D03*
X482600Y533400D02*
D03*
X495300Y508000D02*
D03*
Y457200D02*
D03*
X482600Y431800D02*
D03*
X495300Y406400D02*
D03*
Y152400D02*
D03*
X482600Y127000D02*
D03*
X495300Y101600D02*
D03*
X482600Y76200D02*
D03*
X457200Y889000D02*
D03*
X469900Y863600D02*
D03*
Y812800D02*
D03*
X457200Y787400D02*
D03*
Y736600D02*
D03*
X469900Y558800D02*
D03*
X457200Y533400D02*
D03*
X469900Y406400D02*
D03*
X431800Y889000D02*
D03*
X444500Y863600D02*
D03*
X431800Y838200D02*
D03*
Y736600D02*
D03*
Y127000D02*
D03*
Y76200D02*
D03*
X406400Y889000D02*
D03*
X419100Y863600D02*
D03*
X406400Y838200D02*
D03*
X419100Y812800D02*
D03*
X406400Y787400D02*
D03*
Y736600D02*
D03*
Y127000D02*
D03*
X419100Y101600D02*
D03*
X406400Y76200D02*
D03*
X381000Y889000D02*
D03*
X393700Y863600D02*
D03*
X381000Y838200D02*
D03*
X393700Y812800D02*
D03*
X381000Y736600D02*
D03*
X393700Y355600D02*
D03*
X381000Y127000D02*
D03*
X393700Y101600D02*
D03*
X381000Y76200D02*
D03*
X355600Y889000D02*
D03*
X368300Y863600D02*
D03*
X355600Y787400D02*
D03*
Y736600D02*
D03*
Y127000D02*
D03*
X368300Y101600D02*
D03*
X355600Y76200D02*
D03*
X330200Y889000D02*
D03*
X342900Y863600D02*
D03*
Y812800D02*
D03*
X330200Y736600D02*
D03*
Y431800D02*
D03*
Y330200D02*
D03*
Y127000D02*
D03*
X342900Y101600D02*
D03*
X330200Y76200D02*
D03*
X304800Y889000D02*
D03*
X317500Y863600D02*
D03*
X304800Y736600D02*
D03*
X317500Y711200D02*
D03*
Y609600D02*
D03*
X304800Y431800D02*
D03*
Y127000D02*
D03*
X317500Y101600D02*
D03*
X304800Y76200D02*
D03*
X279400Y889000D02*
D03*
X292100Y863600D02*
D03*
X279400Y736600D02*
D03*
X292100Y457200D02*
D03*
X279400Y127000D02*
D03*
X292100Y101600D02*
D03*
X279400Y76200D02*
D03*
X254000Y889000D02*
D03*
X266700Y863600D02*
D03*
X254000Y736600D02*
D03*
Y635000D02*
D03*
Y431800D02*
D03*
Y279400D02*
D03*
X266700Y152400D02*
D03*
X254000Y76200D02*
D03*
X228600Y889000D02*
D03*
X241300Y863600D02*
D03*
X228600Y736600D02*
D03*
Y635000D02*
D03*
Y279400D02*
D03*
X241300Y152400D02*
D03*
X228600Y76200D02*
D03*
X203200Y889000D02*
D03*
X215900Y863600D02*
D03*
X203200Y736600D02*
D03*
X215900Y457200D02*
D03*
Y406400D02*
D03*
Y304800D02*
D03*
X203200Y279400D02*
D03*
X215900Y254000D02*
D03*
X203200Y228600D02*
D03*
Y177800D02*
D03*
X215900Y152400D02*
D03*
X203200Y127000D02*
D03*
X215900Y101600D02*
D03*
X203200Y76200D02*
D03*
X177800Y889000D02*
D03*
X190500Y863600D02*
D03*
X177800Y838200D02*
D03*
X190500Y812800D02*
D03*
X177800Y787400D02*
D03*
Y736600D02*
D03*
X190500Y355600D02*
D03*
X177800Y330200D02*
D03*
X190500Y304800D02*
D03*
X177800Y279400D02*
D03*
X190500Y254000D02*
D03*
X177800Y228600D02*
D03*
X190500Y203200D02*
D03*
X177800Y177800D02*
D03*
X190500Y152400D02*
D03*
X177800Y127000D02*
D03*
X190500Y101600D02*
D03*
X177800Y76200D02*
D03*
X152400Y889000D02*
D03*
X165100Y863600D02*
D03*
X152400Y838200D02*
D03*
X165100Y812800D02*
D03*
X152400Y787400D02*
D03*
Y736600D02*
D03*
Y431800D02*
D03*
X165100Y355600D02*
D03*
X152400Y330200D02*
D03*
X165100Y304800D02*
D03*
X152400Y279400D02*
D03*
Y228600D02*
D03*
X165100Y203200D02*
D03*
X152400Y177800D02*
D03*
X165100Y152400D02*
D03*
X152400Y127000D02*
D03*
X165100Y101600D02*
D03*
X127000Y889000D02*
D03*
X139700Y863600D02*
D03*
X127000Y838200D02*
D03*
X139700Y812800D02*
D03*
X127000Y787400D02*
D03*
Y736600D02*
D03*
X139700Y406400D02*
D03*
Y355600D02*
D03*
X127000Y330200D02*
D03*
X139700Y304800D02*
D03*
X127000Y279400D02*
D03*
Y228600D02*
D03*
X139700Y203200D02*
D03*
X127000Y177800D02*
D03*
X139700Y152400D02*
D03*
X127000Y127000D02*
D03*
X139700Y101600D02*
D03*
X127000Y76200D02*
D03*
X101600Y889000D02*
D03*
X114300Y863600D02*
D03*
X101600Y838200D02*
D03*
X114300Y812800D02*
D03*
Y762000D02*
D03*
X101600Y381000D02*
D03*
X114300Y355600D02*
D03*
X101600Y330200D02*
D03*
X114300Y304800D02*
D03*
X101600Y279400D02*
D03*
X114300Y254000D02*
D03*
X101600Y228600D02*
D03*
X114300Y203200D02*
D03*
X101600Y177800D02*
D03*
X114300Y152400D02*
D03*
X101600Y127000D02*
D03*
X114300Y101600D02*
D03*
X101600Y76200D02*
D03*
X88900Y812800D02*
D03*
X76200Y685800D02*
D03*
X88900Y660400D02*
D03*
X76200Y381000D02*
D03*
X88900Y355600D02*
D03*
Y254000D02*
D03*
X76200Y228600D02*
D03*
X88900Y203200D02*
D03*
X76200Y177800D02*
D03*
X88900Y152400D02*
D03*
X76200Y127000D02*
D03*
X88900Y101600D02*
D03*
X76200Y76200D02*
D03*
X63500Y812800D02*
D03*
X50800Y787400D02*
D03*
X63500Y762000D02*
D03*
X50800Y736600D02*
D03*
X63500Y711200D02*
D03*
X50800Y685800D02*
D03*
X63500Y660400D02*
D03*
X50800Y381000D02*
D03*
X63500Y355600D02*
D03*
Y254000D02*
D03*
X50800Y228600D02*
D03*
X63500Y203200D02*
D03*
X50800Y177800D02*
D03*
X63500Y152400D02*
D03*
X50800Y127000D02*
D03*
X63500Y101600D02*
D03*
X50800Y76200D02*
D03*
X281686Y563880D02*
D03*
X530352Y164592D02*
D03*
X455168D02*
D03*
X965200Y254000D02*
D03*
X977900Y228600D02*
D03*
X965200Y203200D02*
D03*
X977900Y177800D02*
D03*
X965200Y152400D02*
D03*
X939800Y406400D02*
D03*
Y355600D02*
D03*
Y254000D02*
D03*
X952500Y228600D02*
D03*
X939800Y203200D02*
D03*
X952500Y177800D02*
D03*
X939800Y152400D02*
D03*
X952500Y127000D02*
D03*
X939800Y101600D02*
D03*
X927100Y431800D02*
D03*
X914400Y406400D02*
D03*
Y355600D02*
D03*
X927100Y330200D02*
D03*
X914400Y304800D02*
D03*
X927100Y279400D02*
D03*
X914400Y254000D02*
D03*
X927100Y228600D02*
D03*
X914400Y203200D02*
D03*
X927100Y177800D02*
D03*
X914400Y152400D02*
D03*
X927100Y127000D02*
D03*
X914400Y101600D02*
D03*
X901700Y431800D02*
D03*
X889000Y406400D02*
D03*
X901700Y381000D02*
D03*
X889000Y355600D02*
D03*
X901700Y330200D02*
D03*
X889000Y304800D02*
D03*
X901700Y279400D02*
D03*
Y228600D02*
D03*
X889000Y203200D02*
D03*
X901700Y177800D02*
D03*
X889000Y152400D02*
D03*
X901700Y127000D02*
D03*
X889000Y101600D02*
D03*
X876300Y431800D02*
D03*
Y381000D02*
D03*
Y330200D02*
D03*
X863600Y304800D02*
D03*
X876300Y279400D02*
D03*
X863600Y254000D02*
D03*
X876300Y228600D02*
D03*
X863600Y203200D02*
D03*
X876300Y177800D02*
D03*
X863600Y152400D02*
D03*
X876300Y127000D02*
D03*
X863600Y101600D02*
D03*
X850900Y330200D02*
D03*
Y279400D02*
D03*
Y228600D02*
D03*
Y177800D02*
D03*
X838200Y152400D02*
D03*
X850900Y127000D02*
D03*
X838200Y101600D02*
D03*
X825500Y127000D02*
D03*
Y254000D02*
D03*
Y203200D02*
D03*
X812800Y177800D02*
D03*
X800100Y254000D02*
D03*
X787400Y177800D02*
D03*
X800100Y152400D02*
D03*
X774700Y254000D02*
D03*
X762000Y228600D02*
D03*
Y177800D02*
D03*
X774700Y152400D02*
D03*
X749300Y254000D02*
D03*
X736600Y228600D02*
D03*
X749300Y203200D02*
D03*
X736600Y177800D02*
D03*
X749300Y152400D02*
D03*
X736600Y127000D02*
D03*
X749300Y101600D02*
D03*
X736600Y76200D02*
D03*
X723900Y254000D02*
D03*
X711200Y228600D02*
D03*
X723900Y203200D02*
D03*
X711200Y177800D02*
D03*
X723900Y152400D02*
D03*
X711200Y127000D02*
D03*
X723900Y101600D02*
D03*
X711200Y76200D02*
D03*
X685800Y127000D02*
D03*
X698500Y101600D02*
D03*
X685800Y76200D02*
D03*
X660400Y127000D02*
D03*
X673100Y101600D02*
D03*
X660400Y76200D02*
D03*
X635000Y127000D02*
D03*
X647700Y101600D02*
D03*
X635000Y76200D02*
D03*
X609600Y127000D02*
D03*
X622300Y101600D02*
D03*
X609600Y76200D02*
D03*
X584200Y127000D02*
D03*
X596900Y101600D02*
D03*
X584200Y76200D02*
D03*
X558800Y127000D02*
D03*
X571500Y101600D02*
D03*
X558800Y76200D02*
D03*
X825500Y482600D02*
D03*
X800100D02*
D03*
X787400Y457200D02*
D03*
Y406400D02*
D03*
Y355600D02*
D03*
X774700Y482600D02*
D03*
Y431800D02*
D03*
Y381000D02*
D03*
X749300Y482600D02*
D03*
X685800Y406400D02*
D03*
Y355600D02*
D03*
Y304800D02*
D03*
Y254000D02*
D03*
Y203200D02*
D03*
X673100Y431800D02*
D03*
X660400Y406400D02*
D03*
X673100Y381000D02*
D03*
X660400Y355600D02*
D03*
X673100Y330200D02*
D03*
X660400Y304800D02*
D03*
X673100Y279400D02*
D03*
X660400Y254000D02*
D03*
Y203200D02*
D03*
X673100Y177800D02*
D03*
X647700Y431800D02*
D03*
Y381000D02*
D03*
X635000Y355600D02*
D03*
X647700Y330200D02*
D03*
X635000Y304800D02*
D03*
X647700Y279400D02*
D03*
X635000Y254000D02*
D03*
Y203200D02*
D03*
X647700Y177800D02*
D03*
X622300Y431800D02*
D03*
Y381000D02*
D03*
X609600Y355600D02*
D03*
X622300Y330200D02*
D03*
X609600Y304800D02*
D03*
X622300Y279400D02*
D03*
X609600Y254000D02*
D03*
Y203200D02*
D03*
X622300Y177800D02*
D03*
X393700Y228600D02*
D03*
X381000Y203200D02*
D03*
X393700Y177800D02*
D03*
X368300Y228600D02*
D03*
X355600Y203200D02*
D03*
X368300Y177800D02*
D03*
X342900Y228600D02*
D03*
X330200Y203200D02*
D03*
X342900Y177800D02*
D03*
X317500Y228600D02*
D03*
X304800Y203200D02*
D03*
X317500Y177800D02*
D03*
X292100Y228600D02*
D03*
X279400Y203200D02*
D03*
X292100Y177800D02*
D03*
X266700D02*
D03*
X241300D02*
D03*
X476504Y546862D02*
D03*
X431546Y458470D02*
D03*
X303276Y462280D02*
D03*
X838962Y586740D02*
D03*
X900684Y557022D02*
D03*
X963930Y401066D02*
D03*
X607568Y522224D02*
D03*
X923544Y474726D02*
D03*
X980694Y461772D02*
D03*
X325374Y578866D02*
D03*
X338836D02*
D03*
X866394Y474726D02*
D03*
X866140Y408126D02*
D03*
X980440Y402538D02*
D03*
X534804Y494404D02*
D03*
X606806Y435610D02*
D03*
X338836Y534162D02*
D03*
X322834D02*
D03*
X195575Y447548D02*
D03*
Y600168D02*
D03*
Y472985D02*
D03*
Y498421D02*
D03*
Y523858D02*
D03*
Y549295D02*
D03*
Y574731D02*
D03*
X476758Y507238D02*
D03*
X570230Y407162D02*
D03*
X593090Y385826D02*
D03*
X703326Y352044D02*
D03*
X702564Y413258D02*
D03*
X278384Y415544D02*
D03*
X195575Y625605D02*
D03*
D101*
X971150Y862031D02*
D03*
X71149D02*
D03*
X71124Y306570D02*
D03*
X971046D02*
D03*
M02*
